<?xml version="1.0" encoding="utf-8"?>
<!-- Generator: Adobe Illustrator 21.1.0, SVG Export Plug-In . SVG Version: 6.00 Build 0)  -->
<svg version="1.1" id="Layer_1" xmlns="http://www.w3.org/2000/svg" xmlns:xlink="http://www.w3.org/1999/xlink" x="0px" y="0px"
	 viewBox="0 0 44 44" style="enable-background:new 0 0 44 44;" xml:space="preserve">
<style type="text/css">
	.st0{fill:#0275E5;}
</style>
<title>Asset 5</title>
<path class="st0" d="M41.6,20.5c-0.7-9.7-8.4-17.4-18.1-18.1V0h-3v2.4C10.8,3.1,3.1,10.8,2.4,20.5H0v3h2.4
	c0.7,9.7,8.4,17.4,18.1,18.1V44h3v-2.4c9.7-0.7,17.4-8.4,18.1-18.1H44v-3H41.6z M20.5,5.4v7.3c-4,0.7-7.2,3.8-7.9,7.8H5.4
	C6.1,12.5,12.5,6.1,20.5,5.4z M20.5,38.6c-8-0.7-14.4-7.1-15.1-15.1h7.3c0.7,4,3.8,7.2,7.8,7.9V38.6z M22,28.5
	c-3.6,0-6.5-2.9-6.5-6.5s2.9-6.5,6.5-6.5s6.5,2.9,6.5,6.5c0,0,0,0,0,0C28.5,25.6,25.6,28.5,22,28.5z M23.5,38.6v-7.3
	c4-0.7,7.2-3.8,7.9-7.9h7.2C37.9,31.5,31.5,37.9,23.5,38.6L23.5,38.6z M31.4,20.5c-0.7-4-3.8-7.2-7.9-7.9V5.4
	c8,0.7,14.4,7.1,15.1,15.1L31.4,20.5z"/>
</svg>
