<svg xmlns="http://www.w3.org/2000/svg" xmlns:xlink="http://www.w3.org/1999/xlink" viewBox="0 0 892 236"><defs><style>.a,.b,.c,.d,.e,.f,.g,.h,.i,.j,.k,.l,.m,.n,.o,.p{fill:none;stroke-linecap:round;stroke-linejoin:round;stroke-width:15px;}.a{stroke:url(#a);}.b{stroke:url(#b);}.c{stroke:url(#c);}.d{stroke:url(#d);}.e{stroke:url(#e);}.f{stroke:url(#f);}.g{stroke:url(#g);}.h{stroke:url(#h);}.i{stroke:url(#i);}.j{stroke:url(#j);}.k{stroke:url(#k);}.l{stroke:url(#l);}.m{stroke:url(#m);}.n{stroke:url(#n);}.o{stroke:url(#o);}.p{stroke:url(#p);}</style><linearGradient id="a" x1="855" y1="236" x2="855" y2="63" gradientUnits="userSpaceOnUse"><stop offset="0" stop-color="#ff6c11"/><stop offset="0.05" stop-color="#ff681a"/><stop offset="0.12" stop-color="#fe5d32"/><stop offset="0.21" stop-color="#fd4c5a"/><stop offset="0.32" stop-color="#fb3491"/><stop offset="0.44" stop-color="#f815d7"/><stop offset="0.5" stop-color="#f705fc"/><stop offset="0.56" stop-color="#d92dfa"/><stop offset="0.68" stop-color="#a473f8"/><stop offset="0.79" stop-color="#7aaaf6"/><stop offset="0.88" stop-color="#5cd2f4"/><stop offset="0.95" stop-color="#4aeaf3"/><stop offset="0.99" stop-color="#43f3f3"/></linearGradient><linearGradient id="b" x1="757" x2="757" y2="115" xlink:href="#a"/><linearGradient id="c" x1="714.25" y1="196" x2="714.25" y2="115" xlink:href="#a"/><linearGradient id="d" x1="743" y1="112" x2="743" y2="93" xlink:href="#a"/><linearGradient id="e" x1="677.92" y1="196" x2="677.92" y2="115" xlink:href="#a"/><linearGradient id="f" x1="643.5" y1="196" x2="643.5" xlink:href="#a"/><linearGradient id="g" x1="577" x2="577" xlink:href="#a"/><linearGradient id="h" x1="499.14" y1="196" x2="499.14" y2="115" xlink:href="#a"/><linearGradient id="i" x1="438.47" y1="196" x2="438.47" xlink:href="#a"/><linearGradient id="j" x1="471" y1="130" x2="471" y2="115" xlink:href="#a"/><linearGradient id="k" x1="415" y1="130" x2="415" y2="115" xlink:href="#a"/><linearGradient id="l" x1="336" x2="336" y2="115" xlink:href="#a"/><linearGradient id="m" x1="268.5" x2="268.5" y2="115" xlink:href="#a"/><linearGradient id="n" x1="243" y1="195" x2="243" y2="142" xlink:href="#a"/><linearGradient id="o" x1="194.5" y1="196" x2="194.5" y2="115" xlink:href="#a"/><linearGradient id="p" x1="83.5" y1="196" x2="83.5" y2="0" xlink:href="#a"/></defs><title>Font Alt</title><polyline class="a" points="884.5 70.5 831.5 154.5 874.5 154.5 825.5 228.5"/><polyline class="b" points="702.5 228.5 770.5 122.5 811.5 154.5 748 188.5"/><line class="c" x1="735.5" y1="122.5" x2="693" y2="188.5"/><line class="d" x1="748.5" y1="100.5" x2="737.5" y2="104.5"/><polyline class="e" points="658.33 188.5 701.5 122.5 654.33 144.5"/><polyline class="f" points="681.5 70.5 636.43 141.3 605.5 188.5"/><polyline class="g" points="606.5 70.5 553.5 154.5 596.5 154.5 547.5 228.5"/><polyline class="h" points="532.5 154.5 508.5 122.5 465.78 188.5 516.56 186.5 531.5 170.5"/><polyline class="i" points="476.5 70.5 400.44 188.5 446.5 168.5"/><line class="j" x1="462.5" y1="122.5" x2="479.5" y2="122.5"/><line class="k" x1="406.5" y1="122.5" x2="423.5" y2="122.5"/><polyline class="l" points="281.5 228.5 349.5 122.5 390.5 154.5 327 188.5"/><polyline class="m" points="218.5 228.5 249.5 228.5 318.5 122.5"/><line class="n" x1="230.5" y1="149.5" x2="255.5" y2="187.5"/><polyline class="o" points="228.5 122.5 202.5 122.5 160.5 188.5"/><polyline class="p" points="159.5 33.5 122.5 7.5 7.5 188.5 141.5 171.5 159.5 144.5"/></svg>