<svg xmlns="http://www.w3.org/2000/svg" xmlns:xlink="http://www.w3.org/1999/xlink" viewBox="0 0 913 274"><defs><style>.a,.b,.c,.d,.e,.f,.g,.h,.i,.j,.k,.l,.m,.n,.o{fill:none;stroke-linecap:round;stroke-linejoin:round;stroke-width:15px;}.a{stroke:url(#a);}.b{stroke:url(#b);}.c{stroke:url(#c);}.d{stroke:url(#d);}.e{stroke:url(#e);}.f{stroke:url(#f);}.g{stroke:url(#g);}.h{stroke:url(#h);}.i{stroke:url(#i);}.j{stroke:url(#j);}.k{stroke:url(#k);}.l{stroke:url(#l);}.m{stroke:url(#m);}.n{stroke:url(#n);}.o{stroke:url(#o);}</style><linearGradient id="a" x1="844" y1="116" x2="913" y2="116" gradientUnits="userSpaceOnUse"><stop offset="0" stop-color="#cce0f4"/><stop offset="0.06" stop-color="#c3dcf2"/><stop offset="0.17" stop-color="#a9d2ee"/><stop offset="0.31" stop-color="#80c2e7"/><stop offset="0.46" stop-color="#47acde"/><stop offset="0.57" stop-color="#1e9cd7"/><stop offset="0.87" stop-color="#0075be"/><stop offset="0.99" stop-color="#005b97"/></linearGradient><linearGradient id="b" x1="690" y1="194.5" x2="839" y2="194.5" xlink:href="#a"/><linearGradient id="c" x1="705.5" y1="155.5" x2="763" y2="155.5" xlink:href="#a"/><linearGradient id="d" x1="750" y1="103" x2="776" y2="103" xlink:href="#a"/><linearGradient id="e" x1="665.83" y1="155.5" x2="729" y2="155.5" xlink:href="#a"/><linearGradient id="f" x1="618" x2="726" xlink:href="#a"/><linearGradient id="g" x1="579" x2="648" xlink:href="#a"/><linearGradient id="h" x1="484.28" y1="155.5" x2="566" y2="155.5" xlink:href="#a"/><linearGradient id="i" x1="406.94" x2="515" xlink:href="#a"/><linearGradient id="j" x1="468" y1="122.5" x2="514" y2="122.5" xlink:href="#a"/><linearGradient id="k" x1="264" y1="194.5" x2="413" y2="194.5" xlink:href="#a"/><linearGradient id="l" x1="220" y1="194.5" x2="341" y2="194.5" xlink:href="#a"/><linearGradient id="m" x1="248" y1="154.5" x2="289" y2="154.5" xlink:href="#a"/><linearGradient id="n" x1="167" y1="155.5" x2="250" y2="155.5" xlink:href="#a"/><linearGradient id="o" x1="0" y1="98" x2="172" y2="98" xlink:href="#a"/></defs><title>Cryptoships logo</title><polyline class="a" points="905.5 43.5 851.5 128.5 894.5 128.5 855.89 188.5"/><polyline class="b" points="697.5 266.5 790.5 122.5 831.5 161.5 771 188.5"/><line class="c" x1="755.5" y1="122.5" x2="713" y2="188.5"/><line class="d" x1="768.5" y1="100.5" x2="757.5" y2="105.5"/><polyline class="e" points="678.33 188.5 721.5 122.5 673.33 144.5"/><polyline class="f" points="718.5 43.5 656.43 141.3 625.5 188.5"/><polyline class="g" points="640.5 43.5 586.5 128.5 629.5 128.5 590.89 188.5"/><polyline class="h" points="558.5 146.5 534.5 122.5 491.78 188.5 542.56 186.5 557.5 162.5"/><polyline class="i" points="507.5 43.5 414.44 188.5 460.5 168.5"/><line class="j" x1="475.5" y1="122.5" x2="506.5" y2="122.5"/><polyline class="k" points="271.5 266.5 364.5 122.5 405.5 161.5 345 188.5"/><polyline class="l" points="227.5 237.5 240.5 266.5 333.5 122.5"/><line class="m" x1="255.5" y1="134.5" x2="281.5" y2="174.5"/><polyline class="n" points="242.5 122.5 216.5 122.5 174.5 188.5"/><polyline class="o" points="159.5 33.5 122.5 7.5 7.5 188.5 164.5 157.5 147.5 130.5"/></svg>