<svg xmlns="http://www.w3.org/2000/svg" xmlns:xlink="http://www.w3.org/1999/xlink" viewBox="0 0 892 236"><defs><style>.a,.b,.c,.d,.e,.f,.g,.h,.i,.j,.k,.l,.m,.n,.o,.p{fill:none;stroke-linecap:round;stroke-linejoin:round;stroke-width:15px;}.a{stroke:url(#a);}.b{stroke:url(#b);}.c{stroke:url(#c);}.d{stroke:url(#d);}.e{stroke:url(#e);}.f{stroke:url(#f);}.g{stroke:url(#g);}.h{stroke:url(#h);}.i{stroke:url(#i);}.j{stroke:url(#j);}.k{stroke:url(#k);}.l{stroke:url(#l);}.m{stroke:url(#m);}.n{stroke:url(#n);}.o{stroke:url(#o);}.p{stroke:url(#p);}</style><linearGradient id="a" x1="818" y1="149.5" x2="892" y2="149.5" gradientUnits="userSpaceOnUse"><stop offset="0" stop-color="#cce0f4"/><stop offset="0.02" stop-color="#c3dcf2"/><stop offset="0.06" stop-color="#a9d2ee"/><stop offset="0.11" stop-color="#80c2e7"/><stop offset="0.17" stop-color="#47acde"/><stop offset="0.21" stop-color="#1e9cd7"/><stop offset="0.87" stop-color="#0075be"/><stop offset="0.99" stop-color="#005b97"/></linearGradient><linearGradient id="b" x1="682.4" y1="195.19" x2="816.52" y2="146.37" xlink:href="#a"/><linearGradient id="c" x1="677.83" y1="168.76" x2="750.67" y2="142.24" xlink:href="#a"/><linearGradient id="d" x1="730.45" y1="107.07" x2="755.55" y2="97.93" xlink:href="#a"/><linearGradient id="e" x1="643.2" y1="168.86" x2="716.63" y2="142.14" xlink:href="#a"/><linearGradient id="f" x1="583.94" y1="151.18" x2="703.06" y2="107.82" xlink:href="#a"/><linearGradient id="g" x1="540" x2="614" xlink:href="#a"/><linearGradient id="h" x1="453.27" y1="176.07" x2="537.21" y2="145.52" xlink:href="#a"/><linearGradient id="i" x1="378.88" y1="151.19" x2="498.06" y2="107.81" xlink:href="#a"/><linearGradient id="j" x1="456.45" y1="127.8" x2="485.55" y2="117.2" xlink:href="#a"/><linearGradient id="k" x1="400.45" y1="127.8" x2="429.55" y2="117.2" xlink:href="#a"/><linearGradient id="l" x1="261.4" y1="195.19" x2="395.52" y2="146.37" xlink:href="#a"/><linearGradient id="m" x1="202.08" y1="205.32" x2="338.55" y2="155.65" xlink:href="#a"/><linearGradient id="n" x1="231.02" y1="172.86" x2="254.98" y2="164.14" xlink:href="#a"/><linearGradient id="o" x1="145.3" y1="168.67" x2="240.66" y2="133.97" xlink:href="#a"/><linearGradient id="p" x1="-16.8" y1="143.66" x2="181.33" y2="71.55" xlink:href="#a"/></defs><title>Font 2</title><polyline class="a" points="884.5 70.5 831.5 154.5 874.5 154.5 825.5 228.5"/><polyline class="b" points="702.5 228.5 770.5 122.5 811.5 154.5 748 188.5"/><line class="c" x1="735.5" y1="122.5" x2="693" y2="188.5"/><line class="d" x1="748.5" y1="100.5" x2="737.5" y2="104.5"/><polyline class="e" points="658.33 188.5 701.5 122.5 654.33 144.5"/><polyline class="f" points="681.5 70.5 636.43 141.3 605.5 188.5"/><polyline class="g" points="606.5 70.5 553.5 154.5 596.5 154.5 547.5 228.5"/><polyline class="h" points="532.5 154.5 508.5 122.5 465.78 188.5 516.56 186.5 531.5 170.5"/><polyline class="i" points="476.5 70.5 400.44 188.5 446.5 168.5"/><line class="j" x1="462.5" y1="122.5" x2="479.5" y2="122.5"/><line class="k" x1="406.5" y1="122.5" x2="423.5" y2="122.5"/><polyline class="l" points="281.5 228.5 349.5 122.5 390.5 154.5 327 188.5"/><polyline class="m" points="218.5 228.5 249.5 228.5 318.5 122.5"/><line class="n" x1="230.5" y1="149.5" x2="255.5" y2="187.5"/><polyline class="o" points="228.5 122.5 202.5 122.5 160.5 188.5"/><polyline class="p" points="159.5 33.5 122.5 7.5 7.5 188.5 141.5 171.5 159.5 144.5"/></svg>