<svg version="1" xmlns="http://www.w3.org/2000/svg" width="761.333" height="761.333" viewBox="0 0 571.000000 571.000000"><path d="M250.6 32.9c.2.2-.3.9-1 1.5-1.2.9-4.6 11.1-6.1 18.1-.2 1.1-.6 2.7-.8 3.5-.2.8-.9 4.1-1.7 7.2-.7 3.2-1.7 5.5-2.1 5.2-.5-.3-.6.1-.3.9.4 1.2-1.8 10.8-6.9 30-.7 2.6-1.5 4.5-1.8 4.3-.3-.3-.5.5-.5 1.7 0 4.7-2.7 13.7-4.2 13.7-.9 0-1.2-.6-.8-1.6.5-1.3.4-1.4-.7-.6-1 .9-1.7.8-2.5 0-1.5-1.5-7.4-1.7-8.4-.3-.5.6-.8.5-.8-.4 0-1.1-.3-1.1-1.5-.1-.8.7-1.5.9-1.5.5s-1.8.8-4 2.5c-3.1 2.5-4.2 4.1-4.7 7.3-.4 2.3-.6 4.6-.4 5.2.2.5.5 2.3.8 4 .2 1.6.6 3.6.8 4.2.2.7 0 1.3-.6 1.3s-.7.6-.2 1.2c.4.7.8 1.7.9 2.3.2 1.3-47.5 1.4-49.5.1-1-.6-1.2-.6-.7.3 1.1 1.8-8.3.8-9.6-1-.8-1.1-.9-1.1-.5.3.5 1.5-.6 1.6-11 1.4-10.3-.2-11.8 0-13.4 1.7-1.9 2.1-1.7 2.9 1.7 9.1 1.2 2.3 3.3 6 4.5 8.4 1.2 2.4 4.3 8.2 7 12.8 2.7 4.7 4.9 8.7 4.9 9 0 .2 1.1 2.2 2.4 4.3 1.4 2.1 2.3 4.1 2 4.4-.8.8 5.7 5.8 6.8 5.1.9-.6 11-.7 21.6-.3l5.2.2v50.5l-7.7 1.8c-4.3 1-8.4 1.9-9.2 2-.8.2-2.6.6-3.9.9-1.3.3-3.1 0-4-.7-1.5-1.2-1.6-1.1-.3.4 1.2 1.6 1.1 1.8-1 1.9-2.9.1-4 .3-9.9 1.9-4.5 1.2-7.7 1.9-11.5 2.4-1.1.2-2.7.6-3.5 1-2.4 1-11.4 2.5-12.1 2-.4-.2-.9 0-1.1.5-.1.5-1.6 1.2-3.3 1.5-1.6.3-5.9 1.3-9.5 2.1-3.6.8-7.1 1.3-7.7 1-.7-.2-1.3-.1-1.3.4 0 1.4-3.7 2-5.1.7-.9-.8-1-.8-.5.1.4.7.4 1.3-.1 1.4-.4 0-1.9.3-3.3.6-1.4.4-3.7.7-5.2.7-1.4.1-2.4.4-2.1.8.2.5-.5.8-1.6.8s-2.9 1.3-4.1 3c-1.2 1.6-1.6 3-1 3 .6 0 .9.4.6.9-.5.8 2.9 6 6.1 9.1 1 1 3.2 3.5 4.8 5.5 1.7 2.1 3.5 4.3 4 4.9 5.2 5.7 8.3 10.1 7.8 10.9-.3.6-.1.7.5.3 1.3-.8 3.5 2.8 2.4 3.9-.4.5-.2.5.4.2 1-.6 7.4 5.4 7.4 6.9 0 .3 1.1 1.5 2.5 2.6s2.5 2.3 2.5 2.8 1.2 2.1 2.7 3.7c1.6 1.6 3.7 4 4.8 5.3 1.2 1.4 3.6 4.2 5.5 6.3 2.8 3.2 3.1 4 1.9 4.9-1.1.8-1.1.9.2.5 1-.3 2.8.6 4.5 2.4 2.4 2.5 2.6 3.2 1.4 4-1.3.9-1.3 1 .1.6 2-.6 18.3 17.8 17.3 19.5-.4.6-.3.8.3.5 1.1-.7 8.5 7.6 7.8 8.7-.3.3-.2.4.1.1.4-.2 1.3.3 2.2 1.1 1.3 1.4 1.3 1.7.1 2.6-1.1.8-1.1.9.3.5 1.1-.4 2.8.9 5.4 4.1 2.1 2.6 5.5 6.5 7.6 8.7 2.1 2.2 3.8 4.3 3.8 4.6 0 .4 1.5 2.2 3.3 4 1.7 1.9 4.7 5.3 6.5 7.6 1.9 2.3 4.4 5.3 5.5 6.7 1.2 1.3 4 4.6 6.2 7.2 2.2 2.6 4.6 5.3 5.3 6 .6.7 1.2 1.6 1.2 2 0 .4.6 1.2 1.4 1.8.8.6 6 6.5 11.6 13.1s11.2 13.1 12.4 14.5c1.2 1.4 5.5 6.5 9.6 11.5 4.1 4.9 8 9.6 8.7 10.3.7.8 1.1 1.8.7 2.3-.3.5 0 .8.8.7.7-.2 1.2.3 1 1-.1.8.2 1.1.7.8 1.3-.8 4.2 3.4 3.4 4.8-.3.6-.3.8.2.4 1.1-1 4.6 3.2 3.8 4.6-.3.6-.2.8.2.3.9-.7 5.5 3 5.5 4.5 0 .4 1.4 2.1 3.1 3.7 1.9 1.9 2.8 3.5 2.3 4.3-.4.7-.3 1 .1.5 1.1-.9 4.5 2.1 4.5 4 0 .8.5 1.1 1 .8.6-.3 1-.2 1 .3s2 3.1 4.4 5.8c2.5 2.6 4.2 5.3 3.9 5.9-.4.5-.2.7.2.2.5-.4 1.9 0 3.3.9 1.3.9 2.1 1.1 1.7.5-.4-.8.1-1 1.8-.7 1.7.3 3.1-.2 4.3-1.5 1-1.1 2.3-1.8 3-1.5.7.3 1.1 0 .8-.7-.2-.7.6-2.3 1.9-3.7 1.2-1.4 3.2-3.8 4.5-5.4 1.2-1.5 4.8-5.7 7.9-9.2 3.2-3.5 7-7.8 8.5-9.6 1.5-1.8 4.8-5.8 7.5-8.8 2.6-3.1 6.2-7.2 7.9-9.3 1.7-2 3.5-3.3 4-2.9.5.4.6.3.2-.2-.4-.4 2.9-5.1 7.4-10.2 7-8.2 8.2-9.3 9.7-8.2 1.4 1.2 1.4 1.1.2-.4-1.1-1.5-1-2.2 1.5-5.2 1.6-1.9 3.5-3.5 4.2-3.5.7-.1 1.1-.5.8-.9-.3-.5.5-1.8 1.7-3 1.2-1.1 3.5-3.7 5.1-5.6 1.6-2 3.3-3.3 3.9-2.9.6.3.7.1.3-.5-.8-1.3 5.1-7.9 6.6-7.4.5.1.7-.2.3-.8-1-1.6 1.4-4 3.3-3.3 1.1.3 1.3.2.5-.4-.9-.6-.4-1.7 1.5-4 1.5-1.7 5-5.7 7.7-8.9 5.5-6.4 11.4-13.3 13-15 .6-.6 3-3.5 5.5-6.4 2.5-2.9 5.9-6.8 7.5-8.6 1.7-1.8 4.7-5.2 6.7-7.6 13.6-16.1 23.5-27.6 25.1-29.3 1.1-1.1 2.6-3 3.5-4.3.8-1.3 2.1-2.1 2.9-1.8.8.3 1.1.1.8-.4-.8-1.3 2.6-5.9 4.3-6 .7 0 1.1-.4.8-.8-.2-.4 1.8-3.2 4.5-6.2s4.9-5.8 4.9-6.2c0-.4.7-.8 1.6-.8.8 0 1.3-.4 1-.8-.2-.4 2.2-3.6 5.5-7.1 3.2-3.5 5.9-6.7 5.9-7.1 0-.5.3-1 .8-1.2.4-.2 2-1.9 3.6-3.8s5.2-6.2 8.2-9.5c12.1-13.8 12.3-14 10.4-18.4-1-2.4-2.1-3-10.4-4.9-5.1-1.2-10.3-2.2-11.5-2.2-1.7 0-2.2-.4-1.7-1.6.5-1.3.4-1.4-.7-.6-1 .9-5.1.3-16.3-2.3-8.2-2-16.2-3.8-17.9-4.1-1.6-.3-5.5-1.1-8.5-1.9-3-.8-6.6-1.6-8-1.9-1.4-.2-7.4-1.6-13.5-2.9-6-1.4-12.8-3-15-3.4l-4-.9-.3-25.6-.2-25.5 2.2.1c1.3.1 3.5-.1 5-.5s3-.4 3.2 0c.2.3 3.4.4 7 .1 3.7-.3 7.3-.2 8.1.2 1 .6 2.3-.8 4.8-5.4 1.9-3.5 4.6-8.3 6-10.8 1.5-2.5 3.5-6.4 4.6-8.8 1.1-2.3 2.5-4.2 3.2-4.2.7 0 .9-.3.6-.6-.7-.7 8.1-17.7 9.4-18.2 1-.4.1-3.2-1.7-5.2-1.1-1.3-6.7-1.5-39.3-1.5-33.5 0-38.1-.2-37.6-1.5.4-1.3.4-1.3-.7 0-.7.8-2.5 1.5-4 1.6-2.3 0-2.8-.4-2.8-2.3 0-1.7.4-2.1 1.8-1.6 1.5.5 1.4.4-.2-.9-1.1-.9-1.5-1.7-.9-2.1.6-.4.8-1.9.5-3.3-.3-1.6-.1-2.5.5-2.1.5.3.8-.4.7-1.6-.1-1.2-.3-2.2-.4-2.2-.1 0-.3-1.5-.6-3.4-.4-3-2.5-5.7-6.9-8.9-2.2-1.6-10.1-1.7-14-.2-2.2.8-2.5.6-3.1-1.8-.4-1.5-1.3-5.1-2-8.1-.7-2.9-1.1-5.8-.7-6.4.3-.6.1-.7-.5-.3-.7.4-1.2 0-1.3-1.1 0-1-.2-2.5-.4-3.3-2-7.8-2.4-10.3-1.9-11.3.4-.7.3-.8-.1-.4-1 .9-5.8-16-4.9-17.4.3-.5 0-.9-.7-.9-.6 0-.9-.8-.6-2 .3-1.1.1-2-.5-2s-.8-1.1-.6-2.5c.3-1.3.2-2.2-.3-2-.8.6-2.3-4.8-2.2-8.3 0-1.2-.3-2.2-.6-2.2-.4 0-1.3-2.7-2-6-.8-3.3-1.9-6.4-2.5-6.8-1.1-.7-71.8-2-71-1.3zm8.8 9.2c-.2.4 0 1.1.6 1.4.6.4.9.1.8-.6-.2-.9 1.8-1.3 7.4-1.3 4.2-.1 7.4.2 7.2.6-.2.4 0 1 .6 1.3.6.4.9.1.8-.6-.2-.9 1.4-1.3 5.4-1.3 3.1-.1 5.4.2 5.2.6-.2.4 0 1 .6 1.3.6.4.9.1.8-.6-.2-.9.9-1.3 3-1.4 1.7 0 3.2.4 3.2 1 0 .7.3.7.8 0 .4-.6 4.8-1 9.7-1 9 0 11.6 1 9.9 3.7-.4.7-.3.8.4.4.8-.5 1.3.2 1.4 1.8.2 4.7.3 5.1.9 5.6.4.3 1 2 1.4 3.9.6 2.6.4 3.2-.6 2.7-.8-.4-.7-.2.2.6 1.3 1.1 5.3 14.1 6.5 21.3.2 1.1 1.7 6.9 3.3 12.9 1.6 6 2.8 11.3 2.5 11.7-.2.4 0 .9.5 1.1 1 .3 2.3 5.7 2.5 10.5 0 1.7.4 2.9.8 2.7.9-.6 2.9 9.2 2.2 11.1-.3.8-1.1 1.2-1.8.8-.6-.4-.5.1.3 1 1.8 2.3.7 3.4-1.6 1.6-1.7-1.3-1.7-1.2-.2.6 1.8 2.2 1.7 8.4-.2 9.6-1.3.8-8.1.5-9.6-.4-.7-.4-1.4-.3-1.7.2-.7 1-5.8.7-7.6-.4-.8-.5-1.1-.4-.7.2.3.5-1 .9-3.2.9-3 0-3.8-.3-3.4-1.6.4-1.3.3-1.3-.5-.1-1.5 2.2-7 2.1-7.5 0-.3-.9 0-2.3.7-3 .7-.7.7-1 0-.6-1.3.8-1.5-2.4-.1-4.1.6-.8.5-1.2-.4-1.2-1.1 0-1.1-.2.1-1 .8-.5 1-1 .4-1-.8 0-1.2-2.9-1.3-8.6-.1-8.7-1.7-13.9-4.6-15.1-.8-.3-1.2-1-.8-1.6.3-.5.1-.7-.5-.4-1.5 1-4.3-.3-3.5-1.7.4-.7.1-.7-.7.1-.8.7-1.8.9-2.4.4-.6-.5-3.2-.3-6.1.6-2.7.7-5.5 1.4-6.2 1.5-.7.1-1.1.4-1 .7.3 1.3-4 7-4.8 6.3-.5-.4-.4 0 0 .8.5.8.7 5.5.6 10.5-.4 9-.8 17.5-1 18.5-.1.3-1.2.6-2.6.6-1.4.1-2.3-.2-2-.6.3-.5.1-1.2-.5-1.5-.6-.4-.9-.1-.8.6.2 1-2.3 1.3-10.4 1.3-6.6.1-10.8-.3-10.8-.9 0-.7-.3-.7-.8 0-.8 1.2-7.2 1.5-7.2.3 0-.4.5-.8 1.2-.8.6 0 .4-.6-.5-1.3-1.8-1.2-3-8.3-1.9-10.2.4-.6.8-1.9.9-3 .2-1 .7-2.2 1.1-2.5.4-.3.7-1.3.8-2.3.3-5.6.4-6.2 1.3-4.8.6 1 .8.2.6-2.2-.2-2 .1-3.7.5-3.7.5 0 .7-.7.4-1.5-.4-.8-.1-1.5.6-1.5.6 0 .9-.4.5-.9-.3-.5 2-10.6 5-22.3 3.1-11.7 5.7-22 5.9-22.8 1.6-6.8 3-10.6 4-11.2.8-.6.8-.8-.1-.8-.8 0-.7-1.3.3-4.8 2.1-6.9 2-6.8 4.2-6.8 1.1 0 1.9.4 1.6.7zm29 73.5c3.8 1.4.3 5.4-4.6 5.4-1.3 0-3.3-.7-4.4-1.5-1.9-1.5-1.9-1.5 0-3 2-1.5 6.2-2 9-.9zm-68.7 11.1c.7 1.7-2.4 4.2-5.4 4.3-3.4 0-5.3-1.1-5.3-3 0-3.5 9.4-4.6 10.7-1.3zm138-.1c2.2 2.1 1.5 3.3-2.4 4-2.5.5-3.8.3-4.1-.5-.2-.6-.7-.9-1.2-.6-.4.3-1.3-.2-1.9-.9-1-1.1-.7-1.8 1-3 2.4-1.7 6.4-1.2 8.6 1zm-68 3.6c-.8.5-.8.8-.1.8.7 0 1.1 3.5 1.3 9.7.1 5.4.3 12 .4 14.6.2 2.7-.1 5.1-.6 5.4-.4.2-.4 1 .1 1.6.4.7.9 2.7 1.1 4.6.2 2.6 0 3.1-1.1 2.5-1.1-.6-1.1-.5 0 .8 1.5 1.9 1.2 9.4-.4 9.1-.6-.1-1.1.5-1.1 1.2 0 1.1.4 1.2 1.4.4.7-.6 1.3-1 1.4-.8.5 4 .5 19.8 0 19.5-.4-.3-.8.1-.8.9s.4 1.2.8.9c.4-.2.9 3.2 1.1 7.6.2 4.9-.1 8-.7 8-.5 0-.3.5.5 1 1.2.8 1.2 1-.5 1.1-1.5 0-1.6.2-.5.7 1.7.8 1.9 3 .6 5.1-.6 1-.5 1.2.2.7.7-.4 1.2-.2 1.2.4 0 1.1-4.9.8-6.9-.5-.6-.3-1.1 0-1.1.7 0 .9-.3.9-1-.2-.6-.9-1-1.1-1-.3 0 .7-.6 1-1.2.8-.7-.3-2.9-.6-5-.8-3-.3-3.5-.1-3.1 1.2.4.9.2 1.3-.3.8-1.3-1.2-1.2-5.7.1-5.7.5 0 .3-.5-.5-1s-1-1-.4-1c.7 0 .9-2.5.7-7-.2-5.4 0-6.9 1-6.4.9.6.9.4.1-.7-1.2-1.5-1.5-4.9-.4-4.9.3 0 1 .3 1.6.7.5.5.1 0-.9-1-1.4-1.2-1.5-1.7-.6-1.7 1.1 0 1.1-.2-.1-1-1.6-1.1-1.6-1.1 3.7-1.4 1.2 0 2.4-.4 2.7-.7.3-.3-1-.5-2.9-.4l-3.5.2v-5.3c0-3.6.4-5.4 1.3-5.5.8 0 .8-.2-.2-.6-1.1-.5-1.1-.7 0-1.4 1-.6 1.1-.9.2-.9-.7 0-1.3-.5-1.3-1.1 0-.5.5-.7 1-.4.6.3 1 .1 1-.4 0-.6-.6-1.1-1.2-1.1-.9 0-.8-.4.2-1 .8-.5 1-1 .4-1-.7 0-1-1.2-.7-2.8.2-1.5.4-3.9.4-5.5 0-1.8.4-2.5 1.2-2.1.8.5.8.3 0-.7-.7-.7-1.3-2.8-1.3-4.6 0-2 .5-3.3 1.3-3.3s.8-.3.2-.8c-1.2-.8-1.2-6.2-.1-8 .3-.6 1.4-.9 2.4-.6 1.4.5 1.4.4.2-.4-.8-.6-1.8-.8-2.2-.6-1.3.8-.9-3.1.5-4.5 1-1.1 1-1.3 0-.7-.8.5-1.3.1-1.3-.9s.5-1.4 1.3-.9c1 .6 1 .4 0-.7-1.6-1.6-1.7-3.3-.2-2.3.8.4.8.1.2-1.2-1.1-2.3-1.1-3.4.1-5.3.7-1 .6-1.2-.4-.6-.8.5-1.1.4-.7-.2.3-.5 3.5-.9 7.1-.9 3.6 0 6 .4 5.3.8zm-67 11.1c.7.5 1.1 1.2.8 1.7-.3.4-.1 2 .5 3.4.7 1.9.6 2.6-.3 2.6-.8 0-.9.2-.1.8 1.2.7 2.2 3.4 3 7.8.3 1.5 1.1 5.4 1.7 8.8.7 3.4 1.3 7.2 1.2 8.6 0 1.4.3 2.8.8 3.1.4.3.9 2.1 1.1 4 .2 1.9.7 4.2 1.1 5.2.4 1 .2 2.4-.5 3.2-.7.8-.9 1.5-.5 1.5s.1.8-.6 1.7c-1.3 1.6-1.2 1.7.4.4.9-.8 1.9-1.2 2.1-1 .8.9 2.4 10.3 2.1 12.1-.2 1 0 1.8.4 1.8.8 0 2.4 8 2.6 12.5.1 1.1.4 2.5.7 3 .3.6.4 1.8.3 2.7-.2 1 0 1.8.5 1.8.4 0 1 1.8 1.2 4 .3 3 0 3.9-.9 3.6-.7-.3-1.3-.2-1.3.3 0 .4-.6.8-1.2.8-.7 0-3.1.5-5.3 1-2.2.5-5 .9-6.2.8-1.2-.1-2 .2-1.7.7.3.4-.2.8-1 .8-2 0-3.3-2.3-1.7-2.8.9-.3 1-.6.2-1.1-1.5-1-2.3-11.2-.9-12.8.8-1 .7-1.2-.4-.8-.9.4-1.5 0-1.5-1 0-.8.4-1.5.9-1.5.4 0 .8-.5.8-1.1 0-.5-.4-.8-.9-.5-.5.3-1.1-.5-1.3-1.9-.3-1.4-.1-2.5.3-2.5.5 0 .9.5.9 1.2 0 .6.3.8.7.5.3-.4 0-1.5-.8-2.4-1.6-2-2.3-6-2.4-14 0-2.8-.3-4.9-.6-4.7-.4.2-.6-1.3-.5-3.4.2-2-.1-4.2-.5-4.8-.5-.5-1-4.3-1.1-8.2-.2-4-.6-7.2-1-7.2-.5 0-.8-.5-.8-1.1 0-.5.4-.8.8-.5.5.3.9-.1.9-.9s-.4-1.2-.8-1c-.4.3-.9-.9-1.1-2.6-.3-2-.1-2.8.7-2.5.6.2 1.2-.2 1.2-.9 0-.8-.5-1.3-1.1-1.2-.5.1-1.1-.8-1.2-2-.1-1.2-.4-2.8-.7-3.7-.4-.9-.1-1.6.6-1.6.9 0 .9-.2 0-.8-.6-.4-1.3-3.1-1.5-6.1l-.3-5.4 4.2-.2c2.4-.1 4.6-.5 5-.9.4-.4.9-.1 1.2.6.2.7 1 1.7 1.8 2.1zm131.4-1.9c3.2 0 3.5.3 3.3 2.6-.1 1.4-.2 3.3-.3 4.3-.1 1.2-.5 1.6-1.3 1.1-1-.6-1-.4-.2.7.5.8.9 2 .8 2.6-.1.7-.2 1.8-.3 2.4 0 .5-.7.7-1.3.3-.9-.6-.9-.3 0 .9 1.2 1.4 1.1 2.1-.1 4.7-.9 1.7-1.1 2.8-.6 2.5 1-.7 1.3 4.8.2 5.8-.3.4-.7 2.8-.8 5.5-.3 6.4-1.5 17.3-2.2 19.6-.3 1.1-.7 4.2-.9 7-.2 2.8-.5 6.4-.8 8.1-.2 1.6-.4 4.3-.5 5.8-.1 2-.5 2.6-1.3 2.1-1-.6-1-.5 0 .8 1 1.2 1 1.7-.1 2.7-.8.6-1.6.9-1.9.6-.2-.3-.5.2-.5 1 0 1.1.4 1.2 1.4.4 1-.9 1.3-.7 1.3 1.1 0 1.4-.5 2-1.3 1.7-.8-.3-1.4.1-1.4.8 0 .7.6 1.1 1.4.8 1.3-.5 1.2 2-.4 8.7-.4 1.4-.5 3.1-.4 3.7.2 1.5-2.5 1.7-3.4.3-.4-.6-1-.8-1.5-.5-1.4.8-4-.6-3.3-1.9.4-.6-.1-.5-1 .3-1.5 1.2-2.1 1.1-4.4-1-1.9-1.6-2.3-1.8-1.3-.5 1.4 1.8 1.3 1.9-.3 1.3-1-.4-2.5-.7-3.2-.7-1.6 0-.9-7.1.9-8.2.8-.6.7-.8-.2-.8-.9 0-1-.5-.3-1.9.6-1 .7-2.2.3-2.6-.4-.5 0-.6.9-.3.9.4 1.6.1 1.6-.8 0-.7-.4-1.1-.9-.8-.5.3-.7-.5-.4-1.8.2-1.3.7-3.9 1.1-5.8 1.2-6.7 1.3-7.5 1.4-9.3.1-1 .5-1.5 1.1-1.2.6.3.7-.1.4-1-.4-.8 0-2.3.7-3.2 1.2-1.4 1.2-1.6 0-.8-1 .6-1.2.4-.6-.6.9-1.4 1-2 1.6-7.6.4-3.6 1-4.1 5.2-3.8 1.5.1 2.7-.2 2.7-.6 0-.4-1.6-.6-3.5-.5-3.1.3-3.4.1-3.1-1.8.3-1.1.5-2.1.6-2.1.1 0 .3-.9.4-2 .5-3.9 2.2-12.1 2.6-13 .4-.8.6-1.7 1.4-7.3.4-2.8 1.2-5.2 1.8-5.2.5 0 .6.6.2 1.2-.5 1-.3 1 .7 0 1.2-1.1 1.2-1.4 0-2.1-.9-.6-1.1-1.8-.6-4 .4-2 1.1-2.9 1.8-2.4.9.5.9.3 0-.8-.7-.8-.9-2.5-.6-3.8.5-1.9 1-2.1 3.2-1.5 1.4.4 4.2.8 6.2.8zm-191.3 16.5c-1.1 1.4-1 1.4.7-.1 1.8-1.5 4.5-1.7 20.8-1.6H203l.1 3.2c0 1.7.2 4 .5 5.1.5 2.6 1.3 9.7 1.8 15.5.2 2.5-.1 5.1-.7 5.8-.8 1-.7 1.2.4 1 1-.2 1.4.7 1.4 3.1v3.4h-6c-4.6 0-5.9-.3-5.7-1.4.1-.9-.2-.8-1.1.3-1.1 1.4-1.6 1.5-2.7.5-.7-.7-1-.8-.7-.2.3.6-1.6 1-4.9 1-4.4 0-5.3-.3-4.9-1.5.4-1.3.4-1.3-.7 0-1.5 1.7-4.9 2-6 .5-.5-.6-.8-.6-.8.1 0 1.2-2.9 1.2-4.8 0-.6-.4-1.2-.4-1.2.1 0 .4-4.4.8-9.7.7l-9.8-.1-2.7-4.6c-1.4-2.5-2.4-4.8-2.1-5.1.4-.3.1-.6-.6-.6s-1-.4-.7-.9c.4-.5.2-1.1-.3-1.3-1.3-.5-9.1-15.5-8.4-16.2.4-.3.1-.6-.5-.6-1.3 0-4.7-6-3.5-6 .5 0 .1-.4-.7-1-.9-.5 5.5-.9 17.3-.8 17.2 0 18.7.2 17.5 1.7zm91.7 0c1.8 1.5 1.9 1.5.6-.2-1.2-1.5-1.1-1.7.9-1.7 1.3 0 3.3.8 4.4 1.7 1.7 1.5 1.8 1.5.8.2-1.1-1.5-.8-1.7 2.8-1.7 2.3-.1 3.8.3 3.5.9-.4.5-1.1.6-1.7.3-.7-.4-.8-.2-.4.5.4.6 1.2.9 1.7.6.5-.4.9.3.9 1.4 0 1.1-.5 2.3-1 2.6-.7.4-.7 1.1-.2 1.8 1.3 1.7 1.1 4.9-.3 4.3-.6-.2-1.2.2-1.2 1 0 .7.4 1.1.8.8.4-.2 1 0 1.4.6.3.5-.2 1-1.2 1.1-1.6 0-1.6.1-.2.7 2.2.9.7 5.4-1.6 4.6-.8-.3-1.5-.1-1.5.4 0 .6.9.9 2.1.7 1.9-.4 2 0 1.7 6.1-.1 3.6-.6 6.8-1.1 7.1-.4.2-.5.8-.2 1.3.6 1-5.7.6-7.5-.5-.9-.6-1.1-.4-.5.6.7 1.1.5 1.1-1-.1-1.1-.9-1.6-1-1.1-.3.4.7.2 1.3-.3 1.3-.6 0-1.1-.6-1.1-1.3 0-.7-.3-.8-.8-.2-1 1.5-7.4 1.6-6.5.1.5-.7.2-.7-.8.1-.8.7-2 .8-2.7.4-1.5-.9-3.9-11.5-3.8-16 .1-1.6-.2-2.7-.6-2.4-.5.2-.8-.3-.8-1.1 0-2.3.4-3.1 1.3-2.8.5.1.6-.2.2-.8-.3-.6-1-.8-1.4-.5-.5.2-1.1-1.2-1.4-3.3-.4-2-.9-5.1-1.2-6.8l-.6-3.2h8.8c6.6 0 9.3.5 10.8 1.7zm58.9-.7c-.6 1-.5 1 .7.1 1.9-1.5 8.1-1.4 7.2.1-.5.7-.2.7.8 0 1.7-1.4 10.9-1.7 10.9-.4 0 .5-.4 1.1-.9 1.4-.4.3-.6 1.8-.3 3.2.3 1.5.1 2.4-.4 2.1-.5-.3-.9.9-1 2.6 0 1.8-.3 4.3-.6 5.7-1.2 5.2-2.2 11.5-1.9 12.4.1.5-.5.6-1.4.2-1.3-.5-1.4-.2-.5 1.4 1.2 2.3.4 4.4-1.3 3.4-.8-.5-.8-.3.1.7 2.5 2.7 1.2 3.4-6.3 3.5-4.1 0-6.9-.3-6.2-.8.9-.6.9-.8 0-.8-.6 0-1.4.4-1.7.9-.3.4-2.5.8-4.8.7-4.2-.1-4.3-.2-4.3-3.6 0-2.4.4-3.4 1.3-3.2.8.1 1.1-.2.7-.8-.3-.6-1-.8-1.5-.5-.4.3-1-1.8-1.2-4.5-.2-3.9 0-5 1.2-5.1 1.3 0 1.3-.1 0-.7-1.5-.7-2.3-6.2-.8-6.2.4 0 .8-.5.8-1.1 0-.5-.4-.7-1-.4-.9.6-1.3-9.2-.3-10.8.2-.4 3.3-.7 6.9-.7 5 0 6.3.3 5.8 1.2zm98 .6c-.5 1.5-.5 1.5.5.1.9-1.4 3.3-1.7 15-1.7l13.9-.1-4.7 8.4c-2.5 4.6-5 8.1-5.5 7.8-.5-.4-.6-.1-.2.5.4.6-1.1 4.2-3.2 7.9s-4.1 7.6-4.5 8.6c-.4 1-1.1 1.6-1.6 1.3-.5-.3-.8.1-.7 1 .1 1.3-1 1.6-5.7 1.8-3.1 0-5.7-.3-5.7-.7 0-.5-.5-.5-1.1-.2-1.7 1.1-7.8 1.1-7.2.1.4-.5.1-.6-.6-.1-1.6.9-29.3 1.1-30.9.1-.7-.4-1.2-.3-1.2.2s-1 .8-2.2.6c-1.3-.1-2.9-.3-3.6-.3-1-.1-1.2-1.4-.7-5.4 1.2-10.5 1.4-12.3 2-17.2.7-5.3 1.1-8.6 1.3-12.1.2-2.1.6-2.1 23.6-2.2 21.6-.1 23.5 0 23 1.6zm-222.2 44.5c2.3-.2 4.4-.5 4.6-.8.3-.3 1.1.3 1.9 1.3.8.9 1.2 1.2.9.5-.7-1.3 2.5-2 6.6-1.4 1.8.2 2.5.7 2.1 1.5-.4.7-.1.6.9-.1 1.7-1.5 2.8-.7 2.8 2 0 1.7-.2 1.8-1.7.6-1.6-1.2-1.7-1.2-.6.2.7.9 1 1.9.6 2.3-.4.4.1.4 1.2 0 1.8-.7 1.8-.6.6.9-.8 1-.9 1.7-.3 1.7.6 0 .9 1.3.7 3-.2 1.6-.1 3 .3 3 .6 0 1.2 5.3 1.6 14.7 0 1.8.5 3.3 1 3.3s.1 1-1 2.2c-1.7 2-1.7 2.1-.1.8 1.7-1.3 1.8-1.1 1.5 2.1-.2 2.8-.7 3.4-2.5 3.3-1.2 0-2 .3-1.7.8.5.7-2.2 1.2-6.8 1.1-1 0-1.8.5-1.8 1s-.9.7-2 .4c-1.1-.3-2.3-.1-2.6.5-.3.5-1.2.7-2 .4-.7-.3-1.6-.1-1.9.3-.8 1.5-5.9 2-7.4.8-1.1-.9-1.3-.9-.8-.1.4.7.1 1.4-.6 1.7-.9.3-1.3-1.1-1.3-5.5-.1-3.7.2-5.5.7-4.6.6.9.9.9.9.1 0-.6-.5-1.5-1-1.8-.8-.5-.7-1.1.1-2.1.6-.8.7-1.4.2-1.4-1.1 0-1.1-5 0-6.8.5-.6.4-1.2 0-1.2-1.1 0-1-17.1 0-18.8.5-.7.4-1.2-.2-1.2-.6 0-1.1-.7-1.1-1.6 0-.8.4-1.3.9-.9.5.3 1.3 0 1.7-.6.4-.7.3-.9-.4-.5-.6.3-1.3.2-1.6-.3-.4-.5.2-1.1 1.1-1.3 1-.2 1.9-.1 2.1.2.1.4 2.1.5 4.4.3zm63.2-.2c1.2-.2 1.6.1 1.1 1-.6.8-.4 1 .6.3 1.9-1.2 11.9-1.4 11.9-.2 0 .5-.4.7-.9.3-.5-.3-1.3-.1-1.6.5-.4.6-.1.9.7.8 1-.2 1.3 1.5 1.3 6.9 0 5.8-.3 7.3-1.5 7.3-1.1 0-1.2.2-.3.8 1.6 1 1.4 8.4-.1 7.5-.6-.4-.5.1.2 1 1.4 1.7.7 4.2-.9 3.2-.5-.4-.9 0-.9.7 0 .9-.3.9-1-.2-.5-.8-1-1-1-.5 0 .6-2.1 1.5-4.6 2.1-4.7 1.1-6.2.2-5.9-3.6.1-.8-.3-2.3-.8-3.4-.7-1.4-.6-1.7.5-1 1 .6 1.1.5.1-.8-.7-.8-1-1.8-.6-2.2.4-.4.1-1.1-.7-1.6-1.3-.9-1.3-1 0-1s1.3-.1 0-1c-1.2-.8-1.3-1.2-.2-1.9 1.1-.6 1-1-.3-1.5-1-.3-1.5-1.2-1.1-2.1.3-.8.1-1.7-.4-2-.5-.3-.8-1.3-.8-2.3 0-.9-.2-3-.5-4.5-.5-2.2-.3-2.8.8-2.3.8.3 1.7.1 2-.5.4-.5 1.2-.6 1.8-.2.7.4 2 .6 3.1.4zm69.2.3c1.3-.2 2.1.2 2.1 1.2 0 .9-.6 1.3-1.5.9-1.1-.4-1.2-.2-.5.7.5.7.9 1.7.8 2.3-.1 1.3-1.8 10.8-2.1 11.7-.1.5-.2 1.3-.3 1.9 0 .5-.7.7-1.3.3-.9-.6-.9-.3 0 .9.8.9 1 2.2.6 2.9-.5.7-.9 2-.9 2.8 0 .8-.7 1.4-1.5 1.2-1.2-.3-1.3-.1-.2.9.6.7 1.2 2.2 1.2 3.2 0 1.9 0 1.9-1.7 0-1-1-1.5-1.4-1-.9 1.2 1.6.8 3.1-.4 1.9-.6-.6-1.8-.9-2.7-.6-.9.4-1.3.2-.9-.4.4-.6-.1-1-1.1-.9-.9 0-1.6-.5-1.4-1.2.1-.8-.2-1.1-.8-.7-.6.3-.8 1.1-.5 1.6.4.5.2.9-.4.9-.5 0-1.3-.5-1.6-1-.4-.6-1.1-.8-1.6-.5-1 .7-1.1.6-1.5-10-.2-4.4-.5-8.9-.8-10-.3-1.1-.1-2.7.4-3.5.6-.9.4-2-.3-2.9-.9-1.2-.9-1.3.1-.7.6.4 1.2.3 1.2-.3 0-.5-.6-1.2-1.2-1.5-.7-.3 1-.5 3.7-.4 2.9.1 5.8.8 7 1.7 1.8 1.5 1.9 1.5.7-.1-1.6-2 .1-2.8 3.8-1.8 1.4.4 3.4.6 4.6.4zm54.1-.2c2.8 0 4 .4 3.6 1.1-.3.6.3.4 1.5-.4 1.2-.9 3.5-1.3 5.4-1.1l3.4.4v24.3c0 21.5-.2 24.3-1.5 23.2-1.2-1-1.3-.9-.6.2.6 1.1.4 1.3-.9.8-1-.4-3.5-1-5.7-1.3-2.1-.4-3.9-.9-3.9-1.3 0-.3-1.7-.7-3.7-.9-2-.1-3.9-.6-4.3-1-.3-.4-2-.8-3.9-1-1.9-.1-4-.7-4.6-1.2-.7-.5-1.4-.7-1.8-.4-.3.3-1.4.3-2.5 0-1.6-.6-1.8-1.2-1.2-4.6.4-2.2.5-4 .1-4-.3 0 .1-.5.9-1 1.2-.8 1.2-1 .1-1-1.1 0-1.1-.3-.1-1.5.7-.8.9-1.5.5-1.5s-.1-.8.6-1.7c1.2-1.4 1.2-1.5 0-.9-1 .7-1.2.2-.7-2 1.4-7.3 2.1-12.7 2.4-19.8.2-3.9 1-4.3 8.1-3.8 2.5.2 6.5.4 8.8.4zm-97 167.2c-.2 122.9-.3 132.1-1.9 131.8-.9-.1-1.9.1-2.2.6-.3.5.6.8 2 .6l2.5-.2-.2 11.6-.1 11.5-2.9-3.4c-1.5-1.9-3.7-4.4-4.8-5.5-1.5-1.7-1.7-2.4-.8-3.3.9-.9.8-1.1-.4-.6-1.9.7-6.3-4.1-5.2-5.8.3-.5.1-.7-.4-.4-1.3.8-3.6-1.7-2.5-2.7.4-.4.2-.6-.4-.4-1.6.4-8.5-7.4-7.9-9 .3-.7.1-1-.5-.7-1 .6-14.6-15.3-14.2-16.6.1-.5-.2-.8-.6-.7-.5.2-3.3-2.6-6.3-6.2-2.9-3.6-5.6-6.7-5.9-7-3.9-3.8-7.9-9.3-7.4-10.2.4-.6.3-.8-.3-.5-.5.3-2.9-1.7-5.3-4.5s-5-5.7-5.8-6.4c-.7-.8-1-1.4-.5-1.4.4 0 0-.5-1-1.1-.9-.6-1.5-1.5-1.1-2 .3-.5.1-.8-.3-.7-.5.2-3.4-2.6-6.3-6.2-3-3.6-5.9-7-6.5-7.6-.5-.7-2.6-3.1-4.5-5.4-1.9-2.3-4.4-5.1-5.4-6.1-1.1-1.1-1.7-1.9-1.4-1.9.3 0-.8-1.5-2.5-3.3-4.5-4.8-8.7-9.7-8.7-10.1 0-.3-2-2.6-4.4-5.2-2.5-2.6-4.3-5.2-4-5.6.3-.5.1-.7-.3-.6-.5.2-3.4-2.6-6.3-6.2-3-3.6-5.9-6.8-6.4-7.2-.6-.4-.9-.8-.6-.8.3 0-1.8-2.6-4.7-5.7-2.9-3.1-5.3-6-5.3-6.4 0-.4-1.5-2.3-3.4-4.4-4.8-5-7.5-8.1-12.6-14.5-2.5-3-5-5.9-5.7-6.3-.7-.4-1.3-1.2-1.3-1.6 0-.5-1.6-2.5-3.5-4.5-1.9-2.1-3.3-4.2-2.9-4.7.3-.5.1-.8-.4-.7-1 .3-2-.7-8.2-8.1-1.9-2.3-4.3-5.2-5.2-6.3-1-1.1-1.5-2.5-1.1-3.1.3-.5.1-.7-.4-.4-.6.4-2.4-.9-3.9-2.9-1.6-2-3.8-4.6-4.9-5.8-1.1-1.3-3.5-4-5.4-6.1-2.6-2.9-3.1-3.9-2-4.6 1.3-.8 2.2-1 7.9-1.3 1.4 0 2.7-.4 3-.7.4-.6 26.2-6.9 30-7.4.8-.1 2.4-.4 3.5-.8 1.1-.3 3.1-.8 4.5-1.1 1.4-.2 4.4-.9 6.8-1.5 2.3-.7 4.6-.9 5.1-.6.5.3 1.1.1 1.3-.4.1-.5 1.8-1.2 3.6-1.4 1.9-.3 3.6-.8 4-1.1.3-.3 1.2 0 2 .7 1 .7 1.3.8.9.1-.7-1.1 1.4-2 7.3-3 1.4-.3 6.3-1.4 11-2.5s9.6-2.2 11-2.4c1.4-.2 3.2-.6 4-.9.8-.3 2.6-.8 4-1 1.4-.3 3.9-.9 5.5-1.4 1.7-.5 4.2-.8 5.7-.8 1.4.1 2.4-.2 2.2-.6-.5-.7 2.2-1.2 6.8-1.2.9 0 1.4-.4 1.1-.9-.4-.6 0-.8.9-.4.9.3 1.9.3 2.3-.1.4-.4 1.4-.7 2.3-.8.9 0 2.5-.4 3.5-.8.9-.5 2.3-.6 3.1-.3.8.3 1.6.1 1.8-.4.2-.6 2.3-1.1 4.6-1.2 2.3-.1 4.2-.6 4.2-1.1 0-.4 1.1-.6 2.5-.4 1.5.3 2.2.1 1.8-.5-.4-.6.2-.8 1.5-.5 1.2.4 2.2.2 2.2-.4 0-.5.8-.8 1.8-.7.9.1 2.4-.1 3.2-.4 2.2-.9 9.8-2.8 12.8-3.2 1.5-.2 3.6-.7 4.6-1.1 1.5-.6 1.8-.4 1.2.7-.4.8-.1.7.6-.3.8-.9 3.4-1.8 6.2-2.1 2.6-.3 5-.8 5.3-1.1.4-.3 1.6.2 2.7 1.1 1.2 1 1.5 1.1.9.3-1.7-1.9-1.6-2.7.2-2.7 1.3 0 1.4 16.1 1.2 132.1zm10.9-130.8c-.5 1.4-.4 1.5.9.4 1.2-1 1.8-1 3.2.1 1 .8 1.4.9 1 .2-.6-.9.1-.9 2.5-.2 1.8.6 4.4 1.2 5.8 1.5 1.4.3 3.4.8 4.5 1.1 2.7.9 3.2 1 5.6 1.2 1.3.1 1.8.5 1.3 1.3-.5 1-.4 1 .5.2s2.6-.7 6.4.3c2.9.8 5.9 1.6 6.7 1.8.8.1 1.4.8 1.2 1.6-.2 1 0 1 1.2 0 1.1-.9 3.1-.8 9.8.9 4.5 1.1 9.5 2.3 11.1 2.5 1.5.3 4.1.7 5.9 1 1.7.3 3.5.8 4 1.1.4.3 1.8.7 3 .9 10.5 1.9 14.6 3 14.3 3.6-.3.4.5.5 1.7.1 1.1-.3 1.9-.1 1.6.4-.4.5.6 1 2 1.1 1.5.1 4.1.4 5.7.6 1.7.2 3.8.5 4.8.5 1 .1 1.6.6 1.3 1-.2.4.8.7 2.2.6 1.5 0 4.1.3 5.7.8 1.7.5 4.1 1.1 5.5 1.4 1.4.2 3.6.7 5 1 1.4.3 3.6.8 5 1 1.4.3 5.2 1.2 8.5 2.1 6.9 1.7 8.9 2.2 18 3.8 2.2.4 4.5 1 5 1.4.6.3 1.9.7 3 .8 1.5.2 13.8 2.9 17.5 3.8.3.1 2.2.5 4.3.9 2 .5 3.7 1.1 3.7 1.5 0 .4 1.4.6 3 .3 1.9-.3 3 0 3 .7s.4 1 .8.7c.4-.2 2.9 0 5.5.6 4.2.9 4.6 1.2 3.6 2.9-.5 1.1-1.4 1.7-2 1.4-.5-.4-.8-.3-.7.2.4 1.3-4.4 7.3-5.4 6.7-.5-.3-.7-.1-.6.4.2.5-1.1 2.5-2.7 4.3-1.7 1.9-4.1 4.7-5.3 6.4-1.3 1.6-3.8 4.6-5.5 6.5-3.9 4.3-8.8 10-14.6 16.8-2.4 2.8-4.8 4.9-5.4 4.5-.6-.3-.7-.1-.3.5.4.7.2 1.2-.5 1.2s-.9.3-.6.7c.4.3-1.2 2.7-3.6 5.2-2.3 2.5-6.4 7.3-9.2 10.5-2.7 3.3-6.2 7.3-7.7 9-4.6 5.3-6.8 7.9-11.1 13.1-2.3 2.7-5.6 6.4-7.3 8.1-1.8 1.8-3.8 4.1-4.5 5.2-1.2 1.6-7.4 8.9-14.4 16.8-1.1 1.3-3.8 4.4-6 7-2.2 2.5-5.9 6.7-8.2 9.1-2.4 2.5-4.3 4.8-4.3 5.2 0 .3-2.7 3.5-6 7.1-3.3 3.5-6 6.6-6 6.8 0 .4-3.6 4.6-8.2 9.4-1.6 1.6-2.8 3.3-2.8 3.8s-.3 1-.8 1.2c-.4.1-2.7 2.7-5.1 5.6-2.4 2.8-5 5.2-5.8 5.2-.8 0-1.2.4-.9.9.8 1.2-5.3 8.1-7.1 8.1-.8 0-1.1.5-.7 1.1.8 1.4-5.6 8-6.9 7.2-.6-.3-.7-.1-.3.5.6 1-10.3 14.6-19.5 24.3-2 2.1-3.9 4.5-4.3 5.5-.3.9-1.2 1.4-2.1 1-.8-.3-1.4-.2-1.3.2.4 1.5-1.4 5.2-2.3 4.7-.5-.4-.9-.2-.9.3 0 1.1-4.3 6.2-5.2 6.2-.4 0-.6-1.2-.4-2.8.1-1.5.8-2.6 1.5-2.4.7.1 1-.2.6-.8-.3-.6-1-.8-1.4-.6-.4.3-.8-12.5-.8-28.5-.1-21.8.1-28.7 1-28.2s.9.3 0-.8c-1.7-2.1-1.7-177.7 0-179.8.9-1.2.9-1.3 0-.8-1.7 1-1.6-15.2 0-17.2.8-1 .9-1.3.1-.8-.9.5-1.2-2.7-1.3-11.8 0-8.3.3-12.5 1-12.5.6 0 .8.7.5 1.6z"/><path d="M277.6 48.7c-.6 1.4-.5 1.5.5.6.7-.7 1-1.5.7-1.8-.3-.3-.9.2-1.2 1.2zM263.3 74.5c0 .8.4 1.2.9.9.5-.3.6-1 .3-1.5-.9-1.3-1.2-1.1-1.2.6zM311.5 91.9c-.3.5-.2 1.2.3 1.5.5.3.9-.1.9-.9 0-1.7-.3-1.9-1.2-.6zM319.9 92.7c-1.3 1.6-1.2 1.7.4.4.9-.7 1.7-1.5 1.7-1.7 0-.8-.8-.3-2.1 1.3zM329 112.1c0 .5.5.7 1 .4.6-.3 1-.8 1-1.1 0-.2-.4-.4-1-.4-.5 0-1 .5-1 1.1zM245.4 114.4c.1.8.5 1.8.8 2.2.4.3.5-.1.4-1-.1-.8-.5-1.8-.8-2.2-.4-.3-.5.1-.4 1zM323.5 114.1c-.3.4.2.6 1 .5 2.1-.3 2.8-1.3 1-1.3-.9 0-1.8.4-2 .8zM332 116c-.9.6-1 1-.3 1 .6 0 1.5-.5 1.8-1 .8-1.2.4-1.2-1.5 0zM259.4 117.8c.4.3 1.4.7 2.2.8.9.1 1.3 0 1-.4-.4-.3-1.4-.7-2.2-.8-.9-.1-1.3 0-1 .4zM239 120.1c0 .5.5.7 1 .4.6-.3 1-.8 1-1.1 0-.2-.4-.4-1-.4-.5 0-1 .5-1 1.1zM301.5 120c.3.5.8 1 1.1 1 .2 0 .4-.5.4-1 0-.6-.5-1-1.1-1-.5 0-.7.4-.4 1zM317.6 121.8c-.3.5.1.9.9.9s1.2-.4.9-.9c-.3-.4-.7-.8-.9-.8-.2 0-.6.4-.9.8zM307 124.1c0 .5.5.7 1 .4.6-.3 1-.8 1-1.1 0-.2-.4-.4-1-.4-.5 0-1 .5-1 1.1zM323 126.4c0 .2.8 1 1.8 1.7 1.5 1.3 1.6 1.2.3-.4s-2.1-2.1-2.1-1.3zM243.6 128.2c.3.5 1 .6 1.5.3 1.3-.9 1.1-1.2-.6-1.2-.8 0-1.2.4-.9.9zM259 127.4c0 .2.7.7 1.6 1 .8.3 1.2.2.9-.4-.6-1-2.5-1.4-2.5-.6zM263 127.9c0 .6.4 1.2.8 1.5.5.3.9-.1.9-.9s-.4-1.5-.9-1.5c-.4 0-.8.4-.8.9zM307 127.4c0 .2.7.7 1.6 1 .8.3 1.2.2.9-.4-.6-1-2.5-1.4-2.5-.6zM315.9 128.7c-1.3 1.6-1.2 1.7.4.4 1.6-1.3 2.1-2.1 1.3-2.1-.2 0-1 .8-1.7 1.7zM319.4 131.2l-1.9 2.3 2.3-1.9c1.2-1.1 2.2-2.1 2.2-2.3 0-.8-.8-.2-2.6 1.9zM331.9 130.7c-1.3 1.6-1.2 1.7.4.4.9-.7 1.7-1.5 1.7-1.7 0-.8-.8-.3-2.1 1.3zM236 131.4c0 .2.8 1 1.8 1.7 1.5 1.3 1.6 1.2.3-.4s-2.1-2.1-2.1-1.3zM247.9 132.7c-1.2 1.6-1.2 1.7.2.6.9-.7 2-.9 2.4-.5.5.4.5.1.1-.6-.9-1.6-1.1-1.5-2.7.5zM325.6 132.2c.3.5 1 .6 1.5.3 1.3-.9 1.1-1.2-.6-1.2-.8 0-1.2.4-.9.9zM234 133.4c0 .2.8 1 1.8 1.7 1.5 1.3 1.6 1.2.3-.4s-2.1-2.1-2.1-1.3zM325 134.4c0 .2.8 1 1.8 1.7 1.5 1.3 1.6 1.2.3-.4s-2.1-2.1-2.1-1.3zM238.6 136.2c.3.4.9.8 1.5.8.5 0 .9-.4.9-.8 0-.5-.7-.9-1.5-.9s-1.2.4-.9.9zM247 135.5c0 .7 3 1.3 3.4.7.3-.4-.4-.9-1.5-.9-1-.1-1.9 0-1.9.2zM330.6 135.8c-.3.5.1.9.9.9s1.2-.4.9-.9c-.3-.4-.7-.8-.9-.8-.2 0-.6.4-.9.8zM243 136.4c0 .2.8 1 1.8 1.7 1.5 1.3 1.6 1.2.3-.4s-2.1-2.1-2.1-1.3zM322.6 137.8c-.2.4.4.8 1.4.8 1 0 1.6-.4 1.4-.8-.3-.4-.9-.8-1.4-.8-.5 0-1.1.4-1.4.8zM265 138.4c0 .2.8 1 1.8 1.7 1.5 1.3 1.6 1.2.3-.4s-2.1-2.1-2.1-1.3zM329.3 139.3c0 .8.6 1.4 1.4 1.4.9 0 1-.4.2-1.4-.6-.7-1.2-1.3-1.4-1.3-.1 0-.2.6-.2 1.3zM251 140c0 .5.5 1 1.1 1 .5 0 .7-.5.4-1-.3-.6-.8-1-1.1-1-.2 0-.4.4-.4 1zM307.6 139.8c-.3.5.1.9.9.9s1.2-.4.9-.9c-.3-.4-.7-.8-.9-.8-.2 0-.6.4-.9.8zM242.9 141.7c-1.3 1.6-1.2 1.7.4.4.9-.7 1.7-1.5 1.7-1.7 0-.8-.8-.3-2.1 1.3zM235 141.4c0 .2.7.7 1.6 1 .8.3 1.2.2.9-.4-.6-1-2.5-1.4-2.5-.6zM332.3 142.5c-.3.9-.3 1.8-.1 2.1.3.3.8-.4 1.1-1.6.6-2.3-.1-2.7-1-.5zM251 144.1c0 .5.5.7 1 .4.6-.3 1-.8 1-1.1 0-.2-.4-.4-1-.4-.5 0-1 .5-1 1.1zM215.9 128.7c-1.3 1.6-1.2 1.7.4.4.9-.7 1.7-1.5 1.7-1.7 0-.8-.8-.3-2.1 1.3zM285.9 132.7c-1.3 1.6-1.2 1.7.4.4 1.6-1.3 2.1-2.1 1.3-2.1-.2 0-1 .8-1.7 1.7zM279 133.8c0 .5.7.9 1.5.9s1.2-.4.9-.9c-.3-.4-.9-.8-1.5-.8-.5 0-.9.4-.9.8zM283 136.4c0 .2.8 1 1.8 1.7 1.5 1.3 1.6 1.2.3-.4s-2.1-2.1-2.1-1.3zM281.3 139.6c0 .8.3 1.2.5.9.3-.3 1.1 0 1.9.7.7.6 1.5.9 1.7.7.2-.2-.6-1.2-1.8-2.1-1.8-1.3-2.3-1.4-2.3-.2zM287.5 141.8c.3.3-.3 1.5-1.2 2.6-1.4 1.5-1.4 1.8-.2.8.9-.6 1.8-1.1 2-.9.2.1.3 0 .2-.2-.2-.2.2-.9.7-1.6.7-.8.5-1.2-.5-1.2-.8 0-1.3.3-1 .5zM281 142.3c0 .2.6 1 1.4 1.6 1.1.9 1.6.9 2.2-.1.4-.7.4-1-.1-.6-.4.4-1.4.3-2.2-.3-.7-.6-1.3-.9-1.3-.6zM283.7 148.8c-1.5 1.6-1.5 1.9-.2 1.9.8 0 1.3-.3 1-.5-.3-.3 0-1.1.6-1.9 1.7-2 .5-1.6-1.4.5zM286.5 150c-.3.6.1.7.9.4 1.8-.7 2.1-1.4.7-1.4-.6 0-1.3.4-1.6 1zM279 159.7c0 .6.8 1.7 1.8 2.4 1.6 1.3 1.6 1.3.2-.6-.8-1.1-1.6-2.2-1.7-2.4-.2-.2-.3 0-.3.6zM283.4 160.2c-.4.7-.4 1 .1.6.4-.4 1.5-.2 2.4.5 1.4 1.1 1.4 1 .2-.6-1.6-2-1.8-2.1-2.7-.5zM277 162.4c0 .2.8 1 1.8 1.7 1.5 1.3 1.6 1.2.3-.4s-2.1-2.1-2.1-1.3zM280 166c-.9.6-1 1-.3 1 .6 0 1.5-.5 1.8-1 .8-1.2.4-1.2-1.5 0zM287.4 169.4c.1.8.5 1.8.8 2.2.4.3.5-.1.4-1-.1-.8-.5-1.8-.8-2.2-.4-.3-.5.1-.4 1zM278.7 170.1c.7.9 1 1.9.6 2.2-.3.4-.1.7.5.7 1.7 0 1.5-1.6-.5-3.1-1.6-1.2-1.7-1.2-.6.2zM280.7 176.1c.7.7 1.5 1 1.8.7.3-.3-.2-.9-1.2-1.2-1.4-.6-1.5-.5-.6.5zM278 177.4c0 .2.8 1 1.8 1.7 1.5 1.3 1.6 1.2.3-.4s-2.1-2.1-2.1-1.3zM278.5 182c-.3.6.1.7.9.4 1.8-.7 2.1-1.4.7-1.4-.6 0-1.3.4-1.6 1zM289.3 184.5c0 .8.4 1.2.9.9.5-.3.6-1 .3-1.5-.9-1.3-1.2-1.1-1.2.6zM276.9 187.7c-1.3 1.6-1.2 1.7.4.4 1.6-1.3 2.1-2.1 1.3-2.1-.2 0-1 .8-1.7 1.7zM284.4 187.8c2.3 2.6 2.3 2.6 2.3.7 0-.8-.3-1.3-.5-1-.3.3-1.2-.1-2.1-.7-1-.8-.9-.4.3 1zM289.3 188.7c0 .9.4 1 1.4.2.7-.6 1.3-1.2 1.3-1.4 0-.1-.6-.2-1.3-.2-.8 0-1.4.6-1.4 1.4zM278.9 189.7c-1.3 1.6-1.2 1.7.4.4 1.6-1.3 2.1-2.1 1.3-2.1-.2 0-1 .8-1.7 1.7zM282.7 197.3c-.3.7.3 1.3 1.4 1.3 1.3 0 1.5-.3.7-1.3-.6-.7-1.2-1.3-1.3-1.3-.2 0-.5.6-.8 1.3zM287.6 197.9c-.3.5.2 1.5 1.2 2.2 1.5 1.2 1.6 1.2.5-.2-.7-.9-1-1.9-.6-2.2.3-.4.4-.7 0-.7-.3 0-.8.4-1.1.9zM286.4 203c0 1.3.4 1.6 1 1 .7-.7.7-1.3 0-2-.6-.6-1-.3-1 1zM283.5 203.9c-.3.5-.2 1.2.3 1.5.5.3.9-.1.9-.9 0-1.7-.3-1.9-1.2-.6zM290.7 204.9c-.4 1.7-.3 2.1.5 1.3.5-.5.8-1.6.6-2.3-.3-.8-.7-.3-1.1 1zM279.9 205.2c-.6 2.2-.5 3.9.3 4.5.7.4.8.1.3-.7-.6-.9-.4-1.2.7-.8.8.4 1.5.1 1.5-.7 0-.8-.7-1.1-1.5-.7-1 .3-1.3.1-.8-.6.4-.7.5-1.2.2-1.2s-.6.1-.7.2zM284 208.4c0 .8.4 1.7.9 2 .5.4.7-.3.4-1.4-.6-2.3-1.3-2.6-1.3-.6zM276.6 210.9c-1.7.6-1.7.8-.4 1.4 1 .3 1.9 0 2.2-.9.3-.8.4-1.4.3-1.3-.1 0-1.1.4-2.1.8zM286 212c-.9.6-1 1-.3 1 .6 0 1.5-.5 1.8-1 .8-1.2.4-1.2-1.5 0zM281.1 214.8c-.1.7-.6 1-1.3.6-.7-.4-.8-.3-.4.5.4.6 1.1.9 1.6.6.4-.3 1 0 1.2.7.3.7.7.5 1.1-.6.4-.9.3-1.5-.2-1.1-.5.3-1.2-.1-1.4-.7-.4-1-.6-1-.6 0zM288.5 215.8c-1.5 1.1-1.6 2.9 0 2.9.7 0 1.1-.7.7-1.5-.4-1.1-.1-1.3.8-.7.9.5 1.1.4.6-.3-.8-1.4-.8-1.4-2.1-.4zM284 220.5c-.7.9-.8 1.5-.2 1.5.5 0 1.2-.7 1.6-1.5.3-.8.4-1.5.2-1.5s-.9.7-1.6 1.5zM290.6 222.4c.5 1.3.4 1.7-.4 1.2-.7-.4-1.2-.2-1.2.3 0 1.4 1.7 1.4 2.6 0 .3-.6.1-1.6-.5-2.2-.9-.9-1-.7-.5.7zM279.2 223.4c.7.8 1.5 1.2 1.7 1.1.5-.6-1-2.5-2-2.5-.5 0-.4.6.3 1.4zM218.6 143.5c-1.1.8-1.5 1.5-.9 1.5s1.6-.7 2.3-1.5c1.6-1.9 1.1-1.9-1.4 0zM212.5 144c-.3.6.1.7.9.4 1.8-.7 2.1-1.4.7-1.4-.6 0-1.3.4-1.6 1zM214.7 146.7c.5 1.2.3 1.4-.8.8-.8-.5-1.1-.4-.6 0 .4.5 1.4 1 2.2 1.1 1.2.2 1.2-.2.5-1.7-1.3-2.3-2.2-2.5-1.3-.2zM220.2 145.9c-1 .6-1 1 .3 2.1s1.4 1 .9-.5c-.6-1.4-.4-1.6.6-1 .9.5 1.1.4.6-.3-.8-1.4-.7-1.4-2.4-.3zM217.5 152.1c-.4.6-.4 1.3-.1 1.6.3.4.6.1.6-.6s.5-.9 1.2-.5.8.3.4-.4c-.9-1.5-1.3-1.5-2.1-.1zM213.6 156.3c.3 1 .9 1.5 1.2 1.2.3-.3 0-1.1-.7-1.8-1-.9-1.1-.8-.5.6zM217.4 164.1c0 1.3.3 1.5 1.3.7.7-.6 1.3-1.2 1.3-1.3 0-.2-.6-.5-1.3-.8-.7-.3-1.3.3-1.3 1.4zM221 164c0 .5.5 1 1 1 .6 0 1-.5 1-1 0-.6-.4-1-1-1-.5 0-1 .4-1 1zM223 169.4c0 .2.7.7 1.6 1 .8.3 1.2.2.9-.4-.6-1-2.5-1.4-2.5-.6zM217 171.5c-1.1 1.3-1.1 1.8 0 2.8 1 .9 1.1.9.6-.1-.4-.7-.2-1.9.4-2.7.7-.8 1-1.5.7-1.5-.2 0-1 .7-1.7 1.5zM222.3 171.6c.9 1.1 1.5 2.3 1.2 2.6-.3.3.3 1.1 1.2 1.9 1.6 1.2 1.7 1.2.6-.2-.7-.9-1.1-1.8-.8-2.1.3-.3-.5-1.3-1.7-2.4-2.3-1.9-2.3-1.9-.5.2zM219.3 173.3c0 .8.6 1.4 1.4 1.4.9 0 1-.4.2-1.4-.6-.7-1.2-1.3-1.4-1.3-.1 0-.2.6-.2 1.3zM226 173.4c0 .2.8 1 1.8 1.7 1.5 1.3 1.6 1.2.3-.4s-2.1-2.1-2.1-1.3zM220.9 179.6c-1.1 1.4-2.4 5.2-1.4 4.2.2-.1.3-.6.2-.9-.1-.4.7-1.6 1.7-2.8 1.1-1.2 1.7-2.1 1.4-2.1-.3 0-1.2.7-1.9 1.6zM225.9 180.7c-1.3 1.6-1.2 1.7.4.4.9-.7 1.7-1.5 1.7-1.7 0-.8-.8-.3-2.1 1.3zM224.2 186.2c-1.5 1.5-1.5 2.8 0 2.8.6 0 .8-.3.5-.7-.4-.3-.2-1.2.4-2 1.4-1.6.7-1.7-.9-.1zM227.5 185.8c.3.3-.1 1.2-.7 2.1-.8 1-.4.9 1-.3 2.6-2.3 2.6-2.3.7-2.3-.8 0-1.3.3-1 .5zM229.9 188.7c-1.3 1.6-1.2 1.7.4.4.9-.7 1.7-1.5 1.7-1.7 0-.8-.8-.3-2.1 1.3zM225.9 190.2c-.5 1.8-.6 3.8-.1 3.4.7-.8 1.2-3.6.6-3.6-.2 0-.4.1-.5.2zM220.4 195.8c2.3 2.6 2.3 2.6 2.3.7 0-.8-.3-1.3-.5-1-.3.3-1.2-.1-2.1-.7-1-.8-.9-.4.3 1zM227.5 195c-.4.6-1 .8-1.4.6-.4-.3-.8.1-.8.9 0 1.3.4 1.2 1.9-.2 1.8-1.6 2.2-2.3 1.4-2.3-.3 0-.8.5-1.1 1zM231.6 196.9c-.3.5.1 1.1.9 1.4.9.4 1.2.1.8-.9-.6-1.6-1-1.7-1.7-.5zM227.9 198.7c-1.3 1.6-1.2 1.7.4.4 1.6-1.3 2.1-2.1 1.3-2.1-.2 0-1 .8-1.7 1.7zM221 199.9c0 .6.4 1.3 1 1.6.6.3.7-.1.4-.9-.7-1.8-1.4-2.1-1.4-.7zM227.4 202.8c1.1 1.2 2.1 2 2.4 1.7.3-.3 1.5.3 2.6 1.2 2.1 1.8 2.1 1.8.2-.5-1.1-1.2-2.1-2-2.4-1.7-.3.3-1.5-.3-2.6-1.2-2.1-1.8-2.1-1.8-.2.5zM219.1 203.3c.2.2 1.1.8 2 1.5 1.2.9 1.6.9 1.6-.1 0-.7-.9-1.4-2-1.4-1.1-.1-1.8-.1-1.6 0zM229.4 208c0 1.3.4 1.6 1 1 .7-.7.7-1.3 0-2-.6-.6-1-.3-1 1zM222.6 208.2c.3.4.9.8 1.5.8.5 0 .9-.4.9-.8 0-.5-.7-.9-1.5-.9s-1.2.4-.9.9zM232 210.5c-.7.8-1.6 1.3-2 1-.4-.2-1.6.5-2.6 1.8-1.9 2.2-1.9 2.2.2.4 1.1-.9 2.3-1.5 2.6-1.2.3.3 1.3-.4 2.3-1.5 1-1.1 1.6-2 1.3-2-.3 0-1.1.7-1.8 1.5zM229.5 214.9c-.3.5-.2 1.2.3 1.5.5.3.9-.1.9-.9 0-1.7-.3-1.9-1.2-.6zM232.6 215.8c-.3.5.1.9.9.9s1.5-.4 1.5-.9c0-.4-.4-.8-.9-.8-.6 0-1.2.4-1.5.8zM227 216.4c0 .2.8 1 1.8 1.7 1.5 1.3 1.6 1.2.3-.4s-2.1-2.1-2.1-1.3zM223.9 218.5c-.1.3-.2 1.3-.3 2.3 0 1.1-.8 2.7-1.5 3.8-1.4 1.8-1.4 1.8.4.2 1.1-1 2-2.9 2.1-4.3.1-2.2-.4-3.5-.7-2zM226.9 221.7c-1.3 1.6-1.2 1.7.4.4 1.6-1.3 2.1-2.1 1.3-2.1-.2 0-1 .8-1.7 1.7zM235.4 221.4c.1.8.5 1.8.8 2.2.4.3.5-.1.4-1-.1-.8-.5-1.8-.8-2.2-.4-.3-.5.1-.4 1zM227.3 225.5c0 .8.4 1.2.9.9.5-.3.6-1 .3-1.5-.9-1.3-1.2-1.1-1.2.6zM223.6 225.8c-.3.5.1.9.9.9s1.2-.4.9-.9c-.3-.4-.7-.8-.9-.8-.2 0-.6.4-.9.8zM231.3 227.7c.4.3.1 1.3-.6 2.2-1.1 1.4-1 1.4.6.2 2-1.5 2.2-3.1.5-3.1-.6 0-.8.3-.5.7zM227.3 229.5c0 .8.4 1.2.9.9.5-.3.6-1 .3-1.5-.9-1.3-1.2-1.1-1.2.6zM234.9 233.7c-1.3 1.6-1.2 1.7.4.4.9-.7 1.7-1.5 1.7-1.7 0-.8-.8-.3-2.1 1.3zM345.6 140.6c-.5 1.3-.4 1.4.7.6.8-.7 1.8-.8 2.2-.4.5.4.5.1.1-.6-1-1.7-2.3-1.5-3 .4zM351.3 142.9c1 1.2.9 1.4-.4.9-.9-.4-1.6-.1-1.6.7 0 1 .5 1.1 1.7.5 1-.5 2.1-.6 2.6-.2.5.4.3 0-.4-1-1-1.3-1-1.7 0-2.1.7-.3.3-.4-.9-.4-1.8.1-2 .4-1 1.6zM346.7 148.9c-.3 1.3 0 1.8.7 1.5.7-.3 1.3-1.1 1.3-1.9 0-2.2-1.4-1.8-2 .4zM351 151.9c0 .6.4 1.2.8 1.5.5.3.9-.1.9-.9s-.4-1.5-.9-1.5c-.4 0-.8.4-.8.9zM347 154.6c.6.6.7 1.4.3 1.7-.3.4-.2.7.4.7.6 0 1.3-.8 1.5-1.8.4-1.2-.1-1.8-1.3-1.8s-1.5.4-.9 1.2zM342.7 158.7c.3.7.6 1.3.8 1.3.2 0 .5-.6.8-1.3.3-.8-.1-1.4-.8-1.4-.7 0-1.1.6-.8 1.4zM343 161.5c0 .5.5 1.7 1 2.5s1 1 1 .5c0-.6-.5-1.7-1-2.5s-1-1.1-1-.5zM349.2 162.9c-1.1.6-1 1 0 1.9 1.1.8 1.4.7 1.4-.9 0-1 0-1.9-.1-1.9 0 0-.6.4-1.3.9zM349.1 171.4c-.9 1-.8 1.5.2 1.9.8.3 1.3-.3 1.3-1.4 0-2.3 0-2.3-1.5-.5zM339.4 174.9c.1 2.2.3 4.2.6 4.5.3.3.5-1.2.5-3.4 0-2.1-.3-4.1-.6-4.4-.3-.3-.5 1.2-.5 3.3zM342.5 174c-.3.6.1.7.9.4 1.8-.7 2.1-1.4.7-1.4-.6 0-1.3.4-1.6 1zM346.9 174.2c1.1 1.5 1.1 2.1 0 3.5-1.2 1.7-1.2 1.7.6 0 1.9-1.7 1.9-1.7 0-3.5-1.8-1.6-1.8-1.6-.6 0zM342.7 178.1c.7.7 1.5 1 1.8.7.3-.3-.2-.9-1.2-1.2-1.4-.6-1.5-.5-.6.5zM348.4 180.2c-1.2 1.4-1.3 1.8-.3 1 .9-.6 1.8-1 2.1-.7.2.3.5-.2.5-1 0-1.9 0-1.9-2.3.7zM349.4 183.1c-.3.6-.2 1.5.3 2s.9.1.9-1.1c0-2.3-.2-2.4-1.2-.9zM341.5 187.1c-.4.6-.5 1.2-.2 1.5.2.3.7-.2 1-1.1.7-1.7.1-2-.8-.4zM348.6 187.8c-.3.5.1.9.9.9s1.2-.4.9-.9c-.3-.4-.7-.8-.9-.8-.2 0-.6.4-.9.8zM347.1 190.7c.7 1.2 1.5 2 1.8 1.7.3-.2-.3-1.2-1.3-2.2-1.7-1.6-1.8-1.6-.5.5zM341.4 191.4c.1.8.5 1.8.8 2.2.4.3.5-.1.4-1-.1-.8-.5-1.8-.8-2.2-.4-.3-.5.1-.4 1zM338.6 193.7c-.6 1.4-.5 1.5.5.6.7-.7 1-1.5.7-1.8-.3-.3-.9.2-1.2 1.2zM347.5 195c-.4.6-1 .8-1.4.6-.4-.3-.8.1-.8.9 0 1.3.4 1.2 1.9-.2 1.8-1.6 2.2-2.3 1.4-2.3-.3 0-.8.5-1.1 1zM340 195.5c0 .2.6.8 1.3 1.4 1 .8 1.4.7 1.4-.2 0-.8-.6-1.4-1.4-1.4-.7 0-1.3.1-1.3.2zM348.1 198.4c-.9 1.1-.9 1.6.1 2.2.7.4 1 .4.6-.1-.4-.4-.3-1.4.3-2.2.6-.7.9-1.3.6-1.3-.2 0-1 .6-1.6 1.4zM340.4 199.8c.4.3 1.4.7 2.2.8.9.1 1.3 0 1-.4-.4-.3-1.4-.7-2.2-.8-.9-.1-1.3 0-1 .4zM345 199.9c0 .6.4 1.3 1 1.6.6.3.7-.1.4-.9-.7-1.8-1.4-2.1-1.4-.7zM340.2 204c-.9 1.5-.9 2.1.1 2.6.6.4.9.4.5-.1-.4-.4-.3-1.4.4-2.2.6-.7.9-1.5.7-1.8-.3-.2-1 .4-1.7 1.5zM346.9 204.3c.6.8.7 1.8.3 2.2-.4.5-.1.5.6.1 1-.6 1-1.1.1-2.2-.6-.8-1.4-1.4-1.6-1.4-.3 0 0 .6.6 1.3zM342.6 205.8c-.2.4.4.8 1.4.8 1 0 1.6-.4 1.4-.8-.3-.4-.9-.8-1.4-.8-.5 0-1.1.4-1.4.8zM335.6 210.2c.3.5 1 .6 1.5.3 1.3-.9 1.1-1.2-.6-1.2-.8 0-1.2.4-.9.9zM334.2 211.6c1 1 2 1.6 2.2 1.3.3-.3-.5-1.1-1.7-1.8-2.1-1.3-2.1-1.2-.5.5zM331.5 212.9c-.3.5-.2 1.2.3 1.5.5.3.9-.1.9-.9 0-1.7-.3-1.9-1.2-.6zM335.4 215.2c1 .6 2.2.6 2.6.2.5-.5-.3-1-1.8-1.1-2.2-.1-2.4 0-.8.9zM340.4 219.8c2.3 2.6 2.3 2.6 2.3.7 0-.8-.3-1.3-.5-1-.3.3-1.2-.1-2.1-.7-1-.8-.9-.4.3 1zM338.9 222.2c.7.9.9 2.3.5 3-.6 1-.4 1.1.7 0 1.1-1 1-1.5-.6-3-1.7-1.5-1.8-1.5-.6 0zM329.5 223.9c-.3.5-.2 1.2.3 1.5.5.3.9-.1.9-.9 0-1.7-.3-1.9-1.2-.6zM333.4 224.2c-.4.5-.3 1.2 0 1.5.3.4.6 0 .6-.7 0-.9.7-.7 2.2.6 1.4 1.2 1.8 1.3 1 .3-.6-.9-1-1.8-.7-2.1.3-.2-.2-.5-1-.5-.9 0-1.8.4-2.1.9zM340.9 227.7c-1.3 1.6-1.2 1.7.4.4 1.6-1.3 2.1-2.1 1.3-2.1-.2 0-1 .8-1.7 1.7zM330.9 228.3c.6.8.9 1.6.6 1.9-.3.2.2.5 1 .5 1.3 0 1.3-.3-.2-1.9-1.9-2.1-3.1-2.5-1.4-.5zM344 228c-.9.6-1 1-.3 1 .6 0 1.5-.5 1.8-1 .8-1.2.4-1.2-1.5 0zM337.4 231.1c-.3.6-.2 1.5.3 2s.9.1.9-1.1c0-2.3-.2-2.4-1.2-.9zM192.1 156.4c-.9 1.1-.9 1.6.1 2.2.7.4 1 .4.6-.1-.4-.4-.3-1.4.3-2.2.6-.7.9-1.3.6-1.3-.2 0-1 .6-1.6 1.4zM185.5 157.9c-.3.5-.2 1.2.3 1.5.5.3.9-.1.9-.9 0-1.7-.3-1.9-1.2-.6zM198.7 158.1c.7.7 1.5 1 1.8.7.3-.3-.2-.9-1.2-1.2-1.4-.6-1.5-.5-.6.5zM159.6 163.3c.3 1 .9 1.5 1.2 1.2.3-.3 0-1.1-.7-1.8-1-.9-1.1-.8-.5.6zM189 166.1c0 .5.5.7 1 .4.6-.3 1-.8 1-1.1 0-.2-.4-.4-1-.4-.5 0-1 .5-1 1.1zM200.5 168.1c-.3.4.2.6 1 .5 2.1-.3 2.8-1.3 1-1.3-.9 0-1.8.4-2 .8zM181 172.1c0 .5.5.7 1 .4.6-.3 1-.8 1-1.1 0-.2-.4-.4-1-.4-.5 0-1 .5-1 1.1zM185.3 174.5c0 .8.4 1.2.9.9.5-.3.6-1 .3-1.5-.9-1.3-1.2-1.1-1.2.6zM183 178c0 .5.5 1 1.1 1 .5 0 .7-.5.4-1-.3-.6-.8-1-1.1-1-.2 0-.4.4-.4 1zM147.5 180c.3.5.8 1 1.1 1 .2 0 .4-.5.4-1 0-.6-.5-1-1.1-1-.5 0-.7.4-.4 1zM155.5 180c.3.5.8 1 1.1 1 .2 0 .4-.5.4-1 0-.6-.5-1-1.1-1-.5 0-.7.4-.4 1zM186.6 179.8c-.3.5.1.9.9.9s1.2-.4.9-.9c-.3-.4-.7-.8-.9-.8-.2 0-.6.4-.9.8zM167 183.9c0 .6.4 1.3 1 1.6.6.3.7-.1.4-.9-.7-1.8-1.4-2.1-1.4-.7zM177.9 185.2c-.5 1.8-.6 3.8-.1 3.4.7-.8 1.2-3.6.6-3.6-.2 0-.4.1-.5.2zM185.5 186c.3.5.8 1 1.1 1 .2 0 .4-.5.4-1 0-.6-.5-1-1.1-1-.5 0-.7.4-.4 1zM200 186c-.9.6-1 1-.3 1 .6 0 1.5-.5 1.8-1 .8-1.2.4-1.2-1.5 0zM243.1 155.3c.2.1 1.3.9 2.4 1.7 1.9 1.4 1.9 1.4.6-.3-.7-.9-1.8-1.7-2.4-1.7-.6 0-.8.1-.6.3zM251 155.7c0 .6.8 1.7 1.8 2.4 1.6 1.3 1.6 1.3.2-.6-.8-1.1-1.6-2.2-1.7-2.4-.2-.2-.3 0-.3.6zM261.6 159.3c.3 1 .9 1.5 1.2 1.2.3-.3 0-1.1-.7-1.8-1-.9-1.1-.8-.5.6zM241 159.9c0 .4 1.6.7 3.5.7s3.2-.2 2.9-.5c-.8-.8-6.4-1-6.4-.2zM255 161.4c0 .2.7.7 1.6 1 .8.3 1.2.2.9-.4-.6-1-2.5-1.4-2.5-.6zM242 163.4c1.9 2.4 2.1 4.7.7 6.6-1 1.3-1 1.3.5.2 2.2-1.7 1.9-4.8-.6-7-2-1.6-2-1.6-.6.2zM249 162.4c0 .2.8 1 1.8 1.7 1.5 1.3 1.6 1.2.3-.4s-2.1-2.1-2.1-1.3zM260.6 163.5c-1.8 1.4-1.8 1.4.1 1.2 1.1 0 2-.7 2-1.4s-.1-1.3-.1-1.3c-.1 0-.9.7-2 1.5zM253.9 164.7c-1.3 1.6-1.2 1.7.4.4.9-.7 1.7-1.5 1.7-1.7 0-.8-.8-.3-2.1 1.3zM246.4 165.8c.4.3 1.4.7 2.2.8.9.1 1.3 0 1-.4-.4-.3-1.4-.7-2.2-.8-.9-.1-1.3 0-1 .4zM257 166.4c0 .2.8 1 1.8 1.7 1.5 1.3 1.6 1.2.3-.4s-2.1-2.1-2.1-1.3zM261.5 167.1c-.4.6-.5 1.2-.2 1.5.2.3.7-.2 1-1.1.7-1.7.1-2-.8-.4zM251 168.4c0 .2.8 1 1.8 1.7 1.5 1.3 1.6 1.2.3-.4s-2.1-2.1-2.1-1.3zM255.3 169.3c0 .8.6 1.4 1.4 1.4.9 0 1-.4.2-1.4-.6-.7-1.2-1.3-1.4-1.3-.1 0-.2.6-.2 1.3zM250.2 171.6c1 1 2 1.6 2.2 1.3.3-.3-.5-1.1-1.7-1.8-2.1-1.3-2.1-1.2-.5.5zM261 170.4c0 .2.8 1 1.8 1.7 1.5 1.3 1.6 1.2.3-.4s-2.1-2.1-2.1-1.3zM243 172.4c0 .2.8 1 1.8 1.7 1.5 1.3 1.6 1.2.3-.4s-2.1-2.1-2.1-1.3zM241.4 176c0 1.3.4 1.6 1 1 .7-.7.7-1.3 0-2-.6-.6-1-.3-1 1zM256 176.5c-.7.9-1.1 1.7-.9 2 .3.2 1-.5 1.7-1.5 1.4-2.4 1-2.6-.8-.5zM246.9 177.7c-1.3 1.6-1.2 1.7.4.4.9-.7 1.7-1.5 1.7-1.7 0-.8-.8-.3-2.1 1.3zM243.5 179c-.4.6-1 .8-1.4.6-.4-.3-.8.1-.8.9 0 1 .4 1.2 1.2.5.7-.5 1.4-.8 1.7-.5.2.3.5-.2.5-1 0-1.8-.3-1.9-1.2-.5zM249.4 179.1c-.3.6-.2 1.5.3 2s.9.1.9-1.1c0-2.3-.2-2.4-1.2-.9zM252 179.4c0 .2.8 1 1.8 1.7 1.5 1.3 1.6 1.2.3-.4s-2.1-2.1-2.1-1.3zM245.4 183.4c.1.8.5 1.8.8 2.2.4.3.5-.1.4-1-.1-.8-.5-1.8-.8-2.2-.4-.3-.5.1-.4 1zM257.9 184.7c-1.3 1.6-1.2 1.7.4.4 1.6-1.3 2.1-2.1 1.3-2.1-.2 0-1 .8-1.7 1.7zM251.7 187.2c1.9 2.1 3.1 2.5 1.4.5-.6-.8-.9-1.6-.6-1.9.3-.2-.2-.5-1-.5-1.3 0-1.3.3.2 1.9zM260 186.5c-.7.9-1.1 1.7-.9 2 .3.2 1-.5 1.7-1.5 1.4-2.4 1-2.6-.8-.5zM243.6 188.7c-.6 1.4-.5 1.5.5.6.7-.7 1-1.5.7-1.8-.3-.3-.9.2-1.2 1.2zM248 187.4c0 .2.8 1 1.8 1.7 1.5 1.3 1.6 1.2.3-.4s-2.1-2.1-2.1-1.3zM305.3 156.7c0 .9.4 1 1.4.2.7-.6 1.3-1.2 1.3-1.4 0-.1-.6-.2-1.3-.2-.8 0-1.4.6-1.4 1.4zM327.7 157.1c.7.7 1.5 1 1.8.7.3-.3-.2-.9-1.2-1.2-1.4-.6-1.5-.5-.6.5zM310.7 158.1c.7.9 1 1.9.6 2.2-.3.4-.1.7.5.7 1.7 0 1.5-1.6-.5-3.1-1.6-1.2-1.7-1.2-.6.2zM317 158.4c0 .2.8 1 1.8 1.7 1.5 1.3 1.6 1.2.3-.4s-2.1-2.1-2.1-1.3zM301.6 160.7c-.6 1.4-.5 1.5.5.6.7-.7 1-1.5.7-1.8-.3-.3-.9.2-1.2 1.2zM321.9 160.7c-1.3 1.6-1.2 1.7.4.4 1.6-1.3 2.1-2.1 1.3-2.1-.2 0-1 .8-1.7 1.7zM327.9 159.7c0 .5-.2 1.8-.5 3-.2 1.3 0 2.3.4 2.3s.8-1.4.8-3c.1-1.7 0-3-.2-3s-.4.3-.5.7zM303.9 162.2c-.5 1.8-.6 3.8-.1 3.4.7-.8 1.2-3.6.6-3.6-.2 0-.4.1-.5.2zM323 163.7c0 .6.8 1.7 1.8 2.4 1.6 1.3 1.6 1.3.2-.6-.8-1.1-1.6-2.2-1.7-2.4-.2-.2-.3 0-.3.6zM310.4 168.2c-1.2 1.4-1.3 1.8-.3 1 .9-.6 1.8-1 2.1-.7.2.3.5-.2.5-1 0-1.9 0-1.9-2.3.7zM321 166.4c0 .2.8 1 1.8 1.7 1.5 1.3 1.6 1.2.3-.4s-2.1-2.1-2.1-1.3zM315.6 169.9c-.3.4.4 1.7 1.7 2.7 2.2 1.9 2.2 1.9.4-.2-.9-1.1-1.4-2.4-1-2.7.3-.4.4-.7 0-.7-.3 0-.8.4-1.1.9zM318.4 169.8c.4.3 1.4.7 2.2.8.9.1 1.3 0 1-.4-.4-.3-1.4-.7-2.2-.8-.9-.1-1.3 0-1 .4zM306.9 172.3c.6.8.7 1.8.3 2.2-.4.5-.1.5.6.1 1-.6 1-1.1.1-2.2-.6-.8-1.4-1.4-1.6-1.4-.3 0 0 .6.6 1.3zM302.7 176.1c.7.7 1.5 1 1.8.7.3-.3-.2-.9-1.2-1.2-1.4-.6-1.5-.5-.6.5zM311.5 175.9c-.2.3 2.8.6 6.6.7 3.8 0 6.6-.2 6.4-.5-.7-.7-12.5-.8-13-.2zM314.3 179.6c.9 1.1 1.4 2.3 1.1 2.6-.3.3-.1.8.4 1.2 1.8 1.1.8-2.5-1.2-4.1-2.1-1.8-2.1-1.8-.3.3zM321 178.4c0 .2.8 1 1.8 1.7 1.5 1.3 1.6 1.2.3-.4s-2.1-2.1-2.1-1.3zM310.4 181.8c.4.3 1.4.7 2.2.8.9.1 1.3 0 1-.4-.4-.3-1.4-.7-2.2-.8-.9-.1-1.3 0-1 .4zM318.4 181.8c.4.3 1.4.7 2.2.8.9.1 1.3 0 1-.4-.4-.3-1.4-.7-2.2-.8-.9-.1-1.3 0-1 .4zM303 190.4c.7.7 1.3.7 2 0 .6-.6.3-1-1-1s-1.6.4-1 1zM307.5 190c.3.5.8 1 1.1 1 .2 0 .4-.5.4-1 0-.6-.5-1-1.1-1-.5 0-.7.4-.4 1zM315.6 190.2c.3.5 1 .6 1.5.3 1.3-.9 1.1-1.2-.6-1.2-.8 0-1.2.4-.9.9zM322 189.4c0 .2.7.7 1.6 1 .8.3 1.2.2.9-.4-.6-1-2.5-1.4-2.5-.6zM365.6 159.8c-.3.5.1.9.9.9s1.2-.4.9-.9c-.3-.4-.7-.8-.9-.8-.2 0-.6.4-.9.8zM373 162.1c0 .5.5.7 1 .4.6-.3 1-.8 1-1.1 0-.2-.4-.4-1-.4-.5 0-1 .5-1 1.1zM377.5 162c-.3.5-.1 1 .4 1 .6 0 1.1-.5 1.1-1 0-.6-.2-1-.4-1-.3 0-.8.4-1.1 1zM411.5 164c.3.5.8 1 1.1 1 .2 0 .4-.5.4-1 0-.6-.5-1-1.1-1-.5 0-.7.4-.4 1zM364.6 168.2c.3.5 1 .6 1.5.3 1.3-.9 1.1-1.2-.6-1.2-.8 0-1.2.4-.9.9zM367.5 168.9c-.3.5-.2 1.2.3 1.5.5.3.9-.1.9-.9 0-1.7-.3-1.9-1.2-.6zM373.5 170c.3.5.8 1 1.1 1 .2 0 .4-.5.4-1 0-.6-.5-1-1.1-1-.5 0-.7.4-.4 1zM376.6 169.8c-.3.5.1.9.9.9s1.2-.4.9-.9c-.3-.4-.7-.8-.9-.8-.2 0-.6.4-.9.8zM381.6 170.2c.3.5 1 .6 1.5.3 1.3-.9 1.1-1.2-.6-1.2-.8 0-1.2.4-.9.9zM373.5 174c.3.5.8 1 1.1 1 .2 0 .4-.5.4-1 0-.6-.5-1-1.1-1-.5 0-.7.4-.4 1zM377.3 179.1c-.2 2.3.3 2.5 1 .4.4-.8.3-1.6-.1-1.9-.4-.3-.9.4-.9 1.5zM363.7 184.9c-1 1.4-1 1.4.4.4.9-.7 1.8-1 2.1-.7.3.3.8.1 1.2-.4.9-1.6-2.4-.9-3.7.7zM411.9 184.7c-1.3 1.7-1.3 1.7.6.3 1.1-.8 2.2-1.6 2.4-1.7.2-.2 0-.3-.6-.3s-1.7.8-2.4 1.7zM399 186c0 .5.5 1 1 1 .6 0 1-.5 1-1 0-.6-.4-1-1-1-.5 0-1 .4-1 1zM365.6 188.7c-.6 1.4-.5 1.5.5.6.7-.7 1-1.5.7-1.8-.3-.3-.9.2-1.2 1.2zM382.6 188.2c.3.5 1 .6 1.5.3 1.3-.9 1.1-1.2-.6-1.2-.8 0-1.2.4-.9.9zM204.6 207.8c-.3.5.1.9.9.9s1.2-.4.9-.9c-.3-.4-.7-.8-.9-.8-.2 0-.6.4-.9.8zM197.5 212c.3.5.8 1 1.1 1 .2 0 .4-.5.4-1 0-.6-.5-1-1.1-1-.5 0-.7.4-.4 1zM197.3 215.5c0 .8.4 1.2.9.9.5-.3.6-1 .3-1.5-.9-1.3-1.2-1.1-1.2.6zM207.3 217.5c0 .8.4 1.2.9.9.5-.3.6-1 .3-1.5-.9-1.3-1.2-1.1-1.2.6zM191.6 219.8c-.3.5.1.9.9.9s1.2-.4.9-.9c-.3-.4-.7-.8-.9-.8-.2 0-.6.4-.9.8zM183 222.4c0 .2.8 1 1.8 1.7 1.5 1.3 1.6 1.2.3-.4s-2.1-2.1-2.1-1.3zM200 228c-.9.6-1 1-.3 1 .6 0 1.5-.5 1.8-1 .8-1.2.4-1.2-1.5 0zM185 230.1c0 .5.5.7 1 .4.6-.3 1-.8 1-1.1 0-.2-.4-.4-1-.4-.5 0-1 .5-1 1.1zM203.9 236.7c-1.3 1.6-1.2 1.7.4.4.9-.7 1.7-1.5 1.7-1.7 0-.8-.8-.3-2.1 1.3zM199 240.4c.7.7 1.3.7 2 0 .6-.6.3-1-1-1s-1.6.4-1 1zM249 202.9c-.8.6-1.9.7-2.5.3-.5-.3-.4.1.2 1 .7.8 1.1 1.7.8 2-.3.2.2.5 1 .5 1.2 0 1.2-.3.2-1.6-1-1.2-.9-1.4.4-.9 1 .4 1.6.1 1.6-.8 0-.8-.1-1.4-.1-1.4-.1 0-.8.4-1.6.9zM257.6 203.3c.3 1 .9 1.5 1.2 1.2.3-.3 0-1.1-.7-1.8-1-.9-1.1-.8-.5.6zM261.1 204.6c0 1.1.3 1.4.6.6.3-.7.2-1.6-.1-1.9-.3-.4-.6.2-.5 1.3zM258.1 207.6c0 1.1.3 1.4.6.6.3-.7.2-1.6-.1-1.9-.3-.4-.6.2-.5 1.3zM253.1 207.3c.2.1 1.5 1.1 2.9 2.2 1.5 1.2 2 1.4 1.2.4-.6-.9-1-1.8-.7-2 .2-.3-.5-.6-1.7-.6-1.1-.1-1.9-.1-1.7 0zM250.5 209.8c1.2.8 1.3 4.1.3 5.8-.4.6-.1 1.1.6 1.1.8 0 1.2-1.1 1.1-2.6-.1-1.4.2-3.1.6-3.6.5-.7 0-1.1-1.4-1.2-1.2-.1-1.7.1-1.2.5zM259 212.1c0 .3.9.9 1.9 1.2 1.3.3 1.8 0 1.5-.7-.5-1.3-3.4-1.8-3.4-.5zM251.8 218.7c.7.3 1.6.2 1.9-.1.4-.3-.2-.6-1.3-.5-1.1 0-1.4.3-.6.6zM261.5 220.1c-.6.8-.4 1 .5.4 1-.6 1.2-.4.6 1.1s-.5 1.7.5.6c.9-.9 1-1.5.2-2.3-.8-.8-1.3-.7-1.8.2zM251.4 225.9c0 3.2.4 4.8 1.3 4.8.8 0 .9-.4.4-1.1-.5-.6-.8-2.6-.6-4.4.1-1.8 0-3.4-.4-3.6-.4-.3-.7 1.7-.7 4.3zM258.7 226.7c.3.7.6 1.3.8 1.3.1 0 .7-.6 1.3-1.3.8-1 .6-1.3-.7-1.3-1.1 0-1.7.6-1.4 1.3zM256 227.4c0 .2.8 1 1.8 1.7 1.5 1.3 1.6 1.2.3-.4s-2.1-2.1-2.1-1.3zM306.7 203.1c.6 2.2 2 2.6 2 .4 0-.8-.6-1.6-1.3-1.9-.7-.3-1 .2-.7 1.5zM315 204.1c0 .3.9.9 1.9 1.2 1.3.3 1.8 0 1.5-.7-.5-1.3-3.4-1.8-3.4-.5zM311.5 206c.6.9.4 1.2-.6.8-1-.4-1.5.1-1.6 1.6 0 1.1.1 1.5.4.8.3-.6.8-1 1.3-.7.4.3 1-.2 1.4-1 .3-.8 0-1.7-.6-2.1-.7-.5-.8-.2-.3.6zM319.2 207c-1.8 2.9-1.5 3.8.4 1.2.9-1.3 1.4-2.5 1.2-2.7-.2-.2-.9.5-1.6 1.5zM304.6 207.9c-.3.5.1 1.1.9 1.4.9.4 1.2.1.8-.9-.6-1.6-1-1.7-1.7-.5zM306.7 212.9c-.3 1.3-.1 1.8.9 1.4.7-.2 1-1.1.7-1.9-.7-1.9-1-1.8-1.6.5zM303.6 215.8c-.3.5.1.9.9.9s1.2-.4.9-.9c-.3-.4-.7-.8-.9-.8-.2 0-.6.4-.9.8zM315.4 216.5c.1.8.6 1.8 1.1 2.2.4.5.5.2 0-.6-.6-1.1-.4-1.3.8-.8 2.3.9 2.1 0-.2-1.3-1.5-.7-1.9-.7-1.7.5zM303 220.4c0 .2.9.6 2 .9 1.1.3 1.8.1 1.4-.4-.5-.9-3.4-1.3-3.4-.5zM307.3 222.8c-.8 1.4-.8 1.9.1 1.9.7 0 1.3-.9 1.3-1.9.1-1 .1-1.8 0-1.8s-.7.8-1.4 1.8zM317 222c0 .5.5 1 1.1 1 .5 0 .7-.5.4-1-.3-.6-.8-1-1.1-1-.2 0-.4.4-.4 1zM312 223.4c0 .2.8 1 1.8 1.7 1.5 1.3 1.6 1.2.3-.4s-2.1-2.1-2.1-1.3zM309.9 227.2c1.5 2.1 3.1 2.3 3.1.6 0-.6-.3-.8-.7-.5-.3.4-1.3.1-2.2-.6-1.4-1.1-1.4-1-.2.5zM371 202.4c0 .2.8 1 1.8 1.7 1.5 1.3 1.6 1.2.3-.4s-2.1-2.1-2.1-1.3zM362.7 206.1c.7.7 1.5 1 1.8.7.3-.3-.2-.9-1.2-1.2-1.4-.6-1.5-.5-.6.5zM359.9 206.2c-.5 1.8-.6 3.8-.1 3.4.7-.8 1.2-3.6.6-3.6-.2 0-.4.1-.5.2zM375.5 208c-.3.5-.1 1 .4 1 .6 0 1.1-.5 1.1-1 0-.6-.2-1-.4-1-.3 0-.8.4-1.1 1zM363 210.1c0 .5.5.7 1 .4.6-.3 1-.8 1-1.1 0-.2-.4-.4-1-.4-.5 0-1 .5-1 1.1zM374.5 212.1c-.3.4.2.6 1 .5 2.1-.3 2.8-1.3 1-1.3-.9 0-1.8.4-2 .8zM375.3 215.5c0 .8.4 1.2.9.9.5-.3.6-1 .3-1.5-.9-1.3-1.2-1.1-1.2.6zM379.5 216c-.3.5-.1 1 .4 1 .6 0 1.1-.5 1.1-1 0-.6-.2-1-.4-1-.3 0-.8.4-1.1 1zM385 218c0 .5.5 1 1.1 1 .5 0 .7-.5.4-1-.3-.6-.8-1-1.1-1-.2 0-.4.4-.4 1zM379 220.1c0 .5.5.7 1 .4.6-.3 1-.8 1-1.1 0-.2-.4-.4-1-.4-.5 0-1 .5-1 1.1zM378.9 223.7c-1.3 1.6-1.2 1.7.4.4.9-.7 1.7-1.5 1.7-1.7 0-.8-.8-.3-2.1 1.3zM382.9 223.7c-1.3 1.6-1.2 1.7.4.4 1.6-1.3 2.1-2.1 1.3-2.1-.2 0-1 .8-1.7 1.7zM363.9 228.7c-1.3 1.6-1.2 1.7.4.4 1.6-1.3 2.1-2.1 1.3-2.1-.2 0-1 .8-1.7 1.7zM371.5 231.1c-.4.6-.5 1.2-.2 1.5.2.3.7-.2 1-1.1.7-1.7.1-2-.8-.4zM378.6 232.2c.3.5 1 .6 1.5.3 1.3-.9 1.1-1.2-.6-1.2-.8 0-1.2.4-.9.9zM357.3 234.5c0 .8.4 1.2.9.9.5-.3.6-1 .3-1.5-.9-1.3-1.2-1.1-1.2.6zM366.9 235.7c-1.3 1.6-1.2 1.7.4.4 1.6-1.3 2.1-2.1 1.3-2.1-.2 0-1 .8-1.7 1.7zM371 236.1c0 .5.5.7 1 .4.6-.3 1-.8 1-1.1 0-.2-.4-.4-1-.4-.5 0-1 .5-1 1.1zM381 238c0 .5.5 1 1.1 1 .5 0 .7-.5.4-1-.3-.6-.8-1-1.1-1-.2 0-.4.4-.4 1zM367.3 240.5c0 .8.4 1.2.9.9.5-.3.6-1 .3-1.5-.9-1.3-1.2-1.1-1.2.6zM375 241.5c0 .7 3 1.3 3.4.7.3-.4-.4-.9-1.5-.9-1-.1-1.9 0-1.9.2zM275 241.8c0 .5.7.9 1.5.9s1.2-.4.9-.9c-.3-.4-.9-.8-1.5-.8-.5 0-.9.4-.9.8zM270.6 244.2c.3.5 1 .6 1.5.3 1.3-.9 1.1-1.2-.6-1.2-.8 0-1.2.4-.9.9zM245 246c0 .5.5 1 1.1 1 .5 0 .7-.5.4-1-.3-.6-.8-1-1.1-1-.2 0-.4.4-.4 1zM257 246.1c0 .5.5.7 1 .4.6-.3 1-.8 1-1.1 0-.2-.4-.4-1-.4-.5 0-1 .5-1 1.1zM261.5 246c.3.5.8 1 1.1 1 .2 0 .4-.5.4-1 0-.6-.5-1-1.1-1-.5 0-.7.4-.4 1zM257.3 250.5c0 .8.4 1.2.9.9.5-.3.6-1 .3-1.5-.9-1.3-1.2-1.1-1.2.6zM273.5 250c.3.5.8 1 1.1 1 .2 0 .4-.5.4-1 0-.6-.5-1-1.1-1-.5 0-.7.4-.4 1zM267.5 254c.3.5.8 1 1.1 1 .2 0 .4-.5.4-1 0-.6-.5-1-1.1-1-.5 0-.7.4-.4 1zM171.6 264.2c.3.5 1 .6 1.5.3 1.3-.9 1.1-1.2-.6-1.2-.8 0-1.2.4-.9.9zM106.5 308c-.3.6.1.7.9.4 1.8-.7 2.1-1.4.7-1.4-.6 0-1.3.4-1.6 1zM187.5 411.1c-.4.6-.5 1.2-.2 1.5.2.3.7-.2 1-1.1.7-1.7.1-2-.8-.4zM273.9 487.2c-.5 1.8-.6 3.8-.1 3.4.7-.8 1.2-3.6.6-3.6-.2 0-.4.1-.5.2zM269 490.1c0 .5.5.7 1 .4.6-.3 1-.8 1-1.1 0-.2-.4-.4-1-.4-.5 0-1 .5-1 1.1zM257.3 494.5c0 .8.4 1.2.9.9.5-.3.6-1 .3-1.5-.9-1.3-1.2-1.1-1.2.6zM261.6 497.8c-.3.5.1.9.9.9s1.2-.4.9-.9c-.3-.4-.7-.8-.9-.8-.2 0-.6.4-.9.8zM265.5 498c.3.5.8 1 1.1 1 .2 0 .4-.5.4-1 0-.6-.5-1-1.1-1-.5 0-.7.4-.4 1zM269 498c0 .5.5 1 1.1 1 .5 0 .7-.5.4-1-.3-.6-.8-1-1.1-1-.2 0-.4.4-.4 1zM295 242.4c.7.7 1.3.7 2 0 .6-.6.3-1-1-1s-1.6.4-1 1zM305.5 243.1c-.4.6-.5 1.2-.2 1.5.2.3.7-.2 1-1.1.7-1.7.1-2-.8-.4zM313.5 245.9c-.3.5-.2 1.2.3 1.5.5.3.9-.1.9-.9 0-1.7-.3-1.9-1.2-.6zM289.3 254.5c0 .8.4 1.2.9.9.5-.3.6-1 .3-1.5-.9-1.3-1.2-1.1-1.2.6zM319.5 256c-.3.5-.1 1 .4 1 .6 0 1.1-.5 1.1-1 0-.6-.2-1-.4-1-.3 0-.8.4-1.1 1zM471.5 281.9c-.3.5-.2 1.2.3 1.5.5.3.9-.1.9-.9 0-1.7-.3-1.9-1.2-.6zM459.6 299.8c-.3.5.1.9.9.9s1.2-.4.9-.9c-.3-.4-.7-.8-.9-.8-.2 0-.6.4-.9.8zM462.5 308.1c-.3.4.2.6 1 .5 2.1-.3 2.8-1.3 1-1.3-.9 0-1.8.4-2 .8zM368.7 416.1c.7.7 1.5 1 1.8.7.3-.3-.2-.9-1.2-1.2-1.4-.6-1.5-.5-.6.5zM327.6 456.2c.3.5 1 .6 1.5.3 1.3-.9 1.1-1.2-.6-1.2-.8 0-1.2.4-.9.9zM295.6 471.8c-.3.5.1.9.9.9s1.2-.4.9-.9c-.3-.4-.7-.8-.9-.8-.2 0-.6.4-.9.8zM289.3 486.5c0 .8.4 1.2.9.9.5-.3.6-1 .3-1.5-.9-1.3-1.2-1.1-1.2.6zM295.9 490.7c-1.3 1.6-1.2 1.7.4.4 1.6-1.3 2.1-2.1 1.3-2.1-.2 0-1 .8-1.7 1.7zM303 490c0 .5.5 1 1.1 1 .5 0 .7-.5.4-1-.3-.6-.8-1-1.1-1-.2 0-.4.4-.4 1zM291.5 490.9c-.3.5-.2 1.2.3 1.5.5.3.9-.1.9-.9 0-1.7-.3-1.9-1.2-.6zM308.5 492c-.3.6.1.7.9.4 1.8-.7 2.1-1.4.7-1.4-.6 0-1.3.4-1.6 1zM303.3 495.5c0 .8.4 1.2.9.9.5-.3.6-1 .3-1.5-.9-1.3-1.2-1.1-1.2.6zM298.5 496c-.3.6.1.7.9.4 1.8-.7 2.1-1.4.7-1.4-.6 0-1.3.4-1.6 1zM299.3 500.5c0 .8.4 1.2.9.9.5-.3.6-1 .3-1.5-.9-1.3-1.2-1.1-1.2.6zM339 80.1c0 .5.5.7 1 .4.6-.3 1-.8 1-1.1 0-.2-.4-.4-1-.4-.5 0-1 .5-1 1.1zM339.3 88.5c0 .8.4 1.2.9.9.4-.3.8-.9.8-1.5 0-.5-.4-.9-.8-.9-.5 0-.9.7-.9 1.5zM225.6 106.2c.3.5 1 .6 1.5.3 1.3-.9 1.1-1.2-.6-1.2-.8 0-1.2.4-.9.9zM219.5 110.1c-.3.4.2.6 1 .5 2.1-.3 2.8-1.3 1-1.3-.9 0-1.8.4-2 .8zM344.7 110.1c.7.7 1.5 1 1.8.7.3-.3-.2-.9-1.2-1.2-1.4-.6-1.5-.5-.6.5zM359.6 112.7c-.6 1.4-.5 1.5.5.6.7-.7 1-1.5.7-1.8-.3-.3-.9.2-1.2 1.2zM196.6 125.8c-.3.5.1.9.9.9s1.2-.4.9-.9c-.3-.4-.7-.8-.9-.8-.2 0-.6.4-.9.8zM187.6 128.2c.3.5 1 .6 1.5.3 1.3-.9 1.1-1.2-.6-1.2-.8 0-1.2.4-.9.9zM193.4 133.8c.4.3 1.4.7 2.2.8.9.1 1.3 0 1-.4-.4-.3-1.4-.7-2.2-.8-.9-.1-1.3 0-1 .4zM373.6 133.8c-.3.5.1.9.9.9s1.2-.4.9-.9c-.3-.4-.7-.8-.9-.8-.2 0-.6.4-.9.8zM187.5 138.1c-.3.4.2.6 1 .5 2.1-.3 2.8-1.3 1-1.3-.9 0-1.8.4-2 .8zM377.5 142c-.3.5-.1 1 .4 1 .6 0 1.1-.5 1.1-1 0-.6-.2-1-.4-1-.3 0-.8.4-1.1 1zM196.6 144.2c.3.5 1 .6 1.5.3 1.3-.9 1.1-1.2-.6-1.2-.8 0-1.2.4-.9.9zM414.6 203.8c-.3.5.1.9.9.9s1.2-.4.9-.9c-.3-.4-.7-.8-.9-.8-.2 0-.6.4-.9.8zM403 209.9c0 .6.4 1.3 1 1.6.6.3.7-.1.4-.9-.7-1.8-1.4-2.1-1.4-.7zM158.6 220.2c.3.5 1 .6 1.5.3 1.3-.9 1.1-1.2-.6-1.2-.8 0-1.2.4-.9.9zM415.6 235.3c.3 1 .9 1.5 1.2 1.2.3-.3 0-1.1-.7-1.8-1-.9-1.1-.8-.5.6zM401.4 235.8c.4.3 1.4.7 2.2.8.9.1 1.3 0 1-.4-.4-.3-1.4-.7-2.2-.8-.9-.1-1.3 0-1 .4zM399.5 241.9c-.3.5-.2 1.2.3 1.5.5.3.9-.1.9-.9 0-1.7-.3-1.9-1.2-.6zM415 242.4c0 .2.8 1 1.8 1.7 1.5 1.3 1.6 1.2.3-.4s-2.1-2.1-2.1-1.3zM399.6 247.3c.3 1 .9 1.5 1.2 1.2.3-.3 0-1.1-.7-1.8-1-.9-1.1-.8-.5.6zM491.3 304.7c0 .9.4 1 1.4.2.7-.6 1.3-1.2 1.3-1.4 0-.1-.6-.2-1.3-.2-.8 0-1.4.6-1.4 1.4zM110.9 345.7c-1.3 1.6-1.2 1.7.4.4.9-.7 1.7-1.5 1.7-1.7 0-.8-.8-.3-2.1 1.3zM134.9 375.7c-1.3 1.6-1.2 1.7.4.4.9-.7 1.7-1.5 1.7-1.7 0-.8-.8-.3-2.1 1.3zM427.6 384.2c.3.5 1 .6 1.5.3 1.3-.9 1.1-1.2-.6-1.2-.8 0-1.2.4-.9.9z"/></svg>