<svg xmlns="http://www.w3.org/2000/svg" xmlns:xlink="http://www.w3.org/1999/xlink" viewBox="0 0 43.98 43.98"><defs><style>.a{fill:url(#a);}</style><radialGradient id="a" cx="21.99" cy="21.99" r="21.99" gradientUnits="userSpaceOnUse"><stop offset="0" stop-color="#2de2e6"/><stop offset="1" stop-color="#2de2e6"/></radialGradient></defs><title>Asset 5</title><path class="a" d="M41.6,20.49A19.69,19.69,0,0,0,23.49,2.38V0h-3V2.38A19.69,19.69,0,0,0,2.38,20.49H0v3H2.38A19.69,19.69,0,0,0,20.49,41.6V44h3V41.6A19.69,19.69,0,0,0,41.6,23.49H44v-3ZM20.49,5.38v7.26a9.49,9.49,0,0,0-7.85,7.85H5.38A16.7,16.7,0,0,1,20.49,5.38Zm0,33.22A16.7,16.7,0,0,1,5.38,23.49h7.26a9.49,9.49,0,0,0,7.85,7.85ZM22,28.47A6.48,6.48,0,1,1,28.47,22,6.49,6.49,0,0,1,22,28.47Zm1.5,10.13V31.34a9.49,9.49,0,0,0,7.85-7.85H38.6A16.7,16.7,0,0,1,23.49,38.6Zm7.85-18.11a9.49,9.49,0,0,0-7.85-7.85V5.38A16.7,16.7,0,0,1,38.6,20.49Z"/></svg>