<?xml version="1.0" encoding="utf-8"?>
<!-- Generator: Adobe Illustrator 21.1.0, SVG Export Plug-In . SVG Version: 6.00 Build 0)  -->
<svg version="1.1" id="Capa_1" xmlns="http://www.w3.org/2000/svg" xmlns:xlink="http://www.w3.org/1999/xlink" x="0px" y="0px"
	 viewBox="0 0 512 512" style="enable-background:new 0 0 512 512;" xml:space="preserve">
<style type="text/css">
	.st0{fill:url(#SVGID_1_);}
	.st1{fill:url(#SVGID_2_);}
</style>
<g>
	<g>
		<g>
			<radialGradient id="SVGID_1_" cx="251.2225" cy="278.358" r="87.4066" gradientUnits="userSpaceOnUse">
				<stop  offset="0" style="stop-color:#F9C80E"/>
				<stop  offset="0.1178" style="stop-color:#F9C211"/>
				<stop  offset="0.2812" style="stop-color:#FAB018"/>
				<stop  offset="0.4711" style="stop-color:#FA9223"/>
				<stop  offset="0.6812" style="stop-color:#FB6934"/>
				<stop  offset="0.9052" style="stop-color:#FC3548"/>
				<stop  offset="1" style="stop-color:#FD1D52"/>
			</radialGradient>
			<path class="st0" d="M290.2,209.9l3.2-16.4l-5.4,5.9c-9.9,10.9-23.9,17.2-38.7,17.3c-10.6,0-20.9-3.3-29.5-9.3l-8.4-5.8l1.1,13.7
				c2.4,24.3-10.9,47.5-33.1,57.7l-18,7.9l18.2,7.9c21.9,10.1,35.2,32.8,33.2,56.8v0l-1.2,17.7l3.7-3.6c9.7-9.6,22.8-14.9,36.4-15
				c10.6,0,20.9,3.3,29.5,9.3l8.8,6.1l-1-12.5c-2.9-27.4,14.3-52.9,40.8-60.4l11.5-3l-22.7-12.3
				C296.6,259.5,285.3,234.5,290.2,209.9z"/>
			<radialGradient id="SVGID_2_" cx="256.0094" cy="256.0104" r="255.9998" gradientUnits="userSpaceOnUse">
				<stop  offset="0" style="stop-color:#F9C80E"/>
				<stop  offset="0.1178" style="stop-color:#F9C211"/>
				<stop  offset="0.2812" style="stop-color:#FAB018"/>
				<stop  offset="0.4711" style="stop-color:#FA9223"/>
				<stop  offset="0.6812" style="stop-color:#FB6934"/>
				<stop  offset="0.9052" style="stop-color:#FC3548"/>
				<stop  offset="1" style="stop-color:#FD1D52"/>
			</radialGradient>
			<path class="st1" d="M510,294.3l-144.7-76.9c-8.6-4.7-13.2-14.5-11.3-24.2L391,4.9c0.5-1.8-0.3-3.7-2-4.5
				c-1.2-0.7-2.7-0.4-3.5,0.7L263.7,131.3c-7.1,7.7-18.8,9.1-27.5,3.1l-94.7-64.4c-0.9-0.7-2.1-0.7-3.1-0.1
				c-1.4,0.8-2.1,2.4-1.9,3.9l10.3,120.5c0.9,9.6-4.4,18.6-13.2,22.5L2.2,273.1c-1.4,0.7-2.2,2.2-2.2,3.7s0.9,3,2.2,3.7l131.5,56.3
				c8.7,3.8,14,12.7,13.2,22.2l-10.5,148.6c-0.2,1.7,0.6,3.3,2.1,4c1.1,0.6,2.5,0.3,3.3-0.6l94.5-89.9c7.2-7,18.3-7.9,26.6-2.2
				l95.2,64.7c0.9,0.7,2.1,0.7,3.1,0.1c1.4-0.8,2.1-2.4,1.9-4L353,360.9c-1.1-10.8,5.9-20.8,16.4-23.5l140-35.6
				c1.5-0.4,2.5-1.8,2.6-3.3C512.2,296.8,511.5,295.2,510,294.3z M374.9,288.4c-0.5,3.7-3.1,6.8-6.8,7.7l0,0l-33.9,8.8
				c-17.9,5.3-29.4,22.7-27.2,41.2l2.7,31.8c0.3,3.5-1.5,6.9-4.5,8.7c-3.1,1.8-6.9,1.6-9.8-0.4L270.6,369
				c-13.3-9.1-31.2-7.5-42.8,3.8L207,393c-2.7,2.6-6.8,3.3-10.2,1.7s-5.5-5.1-5.3-8.9l2.9-41.5c1.5-16.3-7.4-31.8-22.2-38.8
				l-37.3-16.3c-3.3-1.5-5.5-4.7-5.5-8.4s2.2-6.9,5.5-8.4l37.2-16.3c15.1-7.1,24-22.9,22.2-39.4l-2.8-33c-0.3-3.5,1.5-6.9,4.5-8.7
				c3.1-1.8,6.9-1.6,9.8,0.4l24.4,16.9c14,9.4,32.9,7.2,44.3-5.3l27.2-29.7c2.8-3,7.2-3.8,10.9-2s5.6,5.9,4.9,9.9l-9.2,48.1
				c-3.5,16.8,4.1,33.9,19,42.5l43.1,23.4C373.5,281,375.4,284.7,374.9,288.4z"/>
		</g>
	</g>
</g>
</svg>
